<svg width="175" height="31" viewBox="0 0 175 31" fill="none" xmlns="http://www.w3.org/2000/svg">
<path d="M135.572 21.2923C136.924 21.2923 137.957 22.3629 137.957 23.711C137.957 25.0988 136.924 26.1297 135.572 26.1297C134.181 26.1297 133.148 25.0988 133.148 23.711C133.108 22.3629 134.181 21.2923 135.572 21.2923Z" fill="#43BC70"/>
<path d="M160.89 25.8125H157.393V18.3185C157.393 16.7721 156.479 15.8205 155.087 15.8205C153.696 15.8205 152.703 16.8118 152.703 18.2392V25.7728H149.205V18.3185C149.205 16.7721 148.291 15.8205 146.9 15.8205C145.469 15.8205 144.515 16.7721 144.515 18.3185V25.7728H141.017V12.9657H144.237V14.1156C145.111 13.2036 146.383 12.6882 147.893 12.6882C149.603 12.6882 150.874 13.3226 151.709 14.5121C152.742 13.3622 154.213 12.6882 156.002 12.6882C159.022 12.6882 160.851 14.75 160.851 17.8427V25.8125H160.89ZM165.779 20.5786C166.176 22.2043 167.528 23.1162 169.396 23.1162C170.668 23.1162 171.86 22.6801 172.973 21.8078L174.444 24.1868C172.893 25.4556 171.184 26.09 169.277 26.09C165.302 26.1693 162.162 23.0766 162.242 19.3891C162.162 15.6619 165.262 12.6088 168.959 12.6882C172.536 12.6882 175 15.3051 175 18.6357C175 19.2701 174.921 19.9045 174.762 20.5389H165.779V20.5786ZM171.622 18.0806C171.582 16.4946 170.39 15.5033 168.839 15.5033C167.369 15.5033 166.176 16.5342 165.779 18.0806H171.622ZM8.02862 25.7331L8.10811 25.8125L10.4134 19.5834L9.14149 18.3621L7.11447 16.3122C6.7965 15.995 6.7965 15.5232 7.11447 15.2099L12.3609 10.0078C12.6789 9.69057 12.6789 9.21873 12.3609 8.9055L9.18124 5.75328C8.86327 5.43608 8.38633 5.43608 8.06836 5.75328L1.62957 12.141C0.63593 13.049 0 14.3495 0 15.769C0 17.1092 0.556439 18.3304 1.43084 19.1988L8.02862 25.7331ZM14.6304 30.6776L10.2067 28.7426C9.82114 28.5602 9.60652 28.1122 9.79332 27.684L21.4666 1.134C21.6494 0.749395 22.0986 0.535283 22.5278 0.72164L26.9515 2.65658C27.337 2.83897 27.5517 3.28703 27.3649 3.71525L15.6916 30.2652C15.5087 30.6895 15.0199 30.86 14.6304 30.6776ZM35.8108 12.2123L29.2528 5.63037L29.1335 5.51142L26.8283 11.7365L28.1399 13.045L30.2067 15.1068C30.5246 15.424 30.5246 15.8998 30.2067 16.217L24.8808 21.4509C24.5628 21.7681 24.5628 22.2439 24.8808 22.5611L28.0604 25.7331C28.3784 26.0504 28.8553 26.0504 29.1733 25.7331L35.6121 19.3098C36.6057 18.3978 37.2416 17.0894 37.2416 15.6619C37.2416 14.3138 36.6852 13.0847 35.8108 12.2123Z" fill="#43BC70"/>
<path d="M45.4291 21.9664C42.5277 21.9664 40.2224 20.1425 39.348 17.5652C38.9903 18.8737 38.2749 20.0632 37.2415 21.0148L36.6056 21.6492C38.5531 24.3058 41.7328 26.0108 45.3894 26.0108C49.1255 26.0108 52.1859 24.2265 54.0539 21.2527L50.9538 18.8737C49.4434 20.9355 47.6151 21.9664 45.4291 21.9664Z" fill="white"/>
<path d="M57.6707 23.1955C55.6039 21.1337 54.5308 18.6357 54.5308 15.7016C54.5308 12.7674 55.5642 10.3091 57.6707 8.20764C59.7375 6.14582 62.2415 5.07526 65.1826 5.07526C68.1238 5.07526 70.588 6.10617 72.6946 8.20764C74.7613 10.2695 75.8345 12.7674 75.8345 15.7016C75.8345 18.6357 74.8011 21.1337 72.6946 23.1955C70.6278 25.2573 68.1238 26.3279 65.1826 26.3279C62.2415 26.3279 59.7375 25.297 57.6707 23.1955ZM60.7709 11.3004C59.5388 12.5295 58.9426 13.9966 58.9426 15.7016C58.9426 17.4462 59.5388 18.9133 60.7709 20.1424C62.003 21.3716 63.4736 21.9664 65.1826 21.9664C66.8917 21.9664 68.402 21.3716 69.5944 20.1424C70.8265 18.9133 71.4227 17.4462 71.4227 15.7016C71.4227 13.957 70.8265 12.4899 69.5944 11.3004C68.3623 10.0712 66.8917 9.47646 65.1826 9.47646C63.4736 9.47646 61.9632 10.0712 60.7709 11.3004ZM87.9966 26.0107C85.0554 26.0107 82.5515 24.9798 80.445 22.8783C78.3782 20.8165 77.305 18.3185 77.305 15.3844C77.305 12.4502 78.3384 9.95226 80.445 7.89044C82.5117 5.78897 85.0554 4.75805 87.9966 4.75805C90.6198 4.7184 92.6866 5.35281 94.2367 6.62163V0H98.6087V25.7331H94.2367V24.1471C93.0046 25.3763 90.9378 26.0107 87.9966 26.0107ZM87.9966 9.15926C86.2478 9.15926 84.7772 9.75401 83.5451 10.9832C82.313 12.2123 81.7168 13.6794 81.7168 15.3844C81.7168 17.0893 82.313 18.5961 83.5451 19.7856C84.7772 21.0147 86.2478 21.6095 87.9966 21.6095C89.7454 21.6095 91.216 21.0147 92.4084 19.7856C93.6405 18.5564 94.2367 17.0893 94.2367 15.3844C94.2367 13.6794 93.6405 12.1727 92.4084 10.9832C91.1763 9.75401 89.7057 9.15926 87.9966 9.15926ZM111.367 26.0107C108.426 26.0107 105.922 24.9798 103.855 22.8783C101.788 20.8165 100.715 18.3185 100.715 15.3844C100.715 12.4502 101.749 9.95226 103.855 7.85079C105.922 5.78897 108.426 4.7184 111.367 4.7184C114.308 4.7184 116.415 5.31316 117.647 6.54233V4.95631H122.019V25.6935H117.647V24.1075C116.375 25.4159 114.308 26.0107 111.367 26.0107ZM111.367 9.15926C109.658 9.15926 108.187 9.75401 106.955 10.9832C105.723 12.2123 105.127 13.6794 105.127 15.3844C105.127 17.0893 105.723 18.5961 106.916 19.8252C108.148 21.0544 109.618 21.6491 111.327 21.6491C113.036 21.6491 114.547 21.0544 115.779 19.8252C117.011 18.5961 117.607 17.129 117.607 15.424C117.607 13.7191 117.011 12.2123 115.779 11.0228C114.547 9.75401 113.076 9.15926 111.367 9.15926ZM135.254 5.27351H125.516V26.0107H129.889V9.63506H135.254V5.27351ZM37.5197 10.4677C38.3543 11.3004 38.9108 12.2916 39.2685 13.3226C40.0634 10.5867 42.4481 8.6438 45.4291 8.6438C47.6548 8.6438 49.4831 9.67471 50.9537 11.7762L54.0539 9.35751C52.2653 6.38372 49.2049 4.59945 45.3893 4.59945C41.693 4.5598 38.3543 6.42337 36.3671 9.27821L37.5197 10.4677Z" fill="white"/>
</svg>
