<svg width="50" height="30" viewBox="0 0 50 30" fill="none" xmlns="http://www.w3.org/2000/svg">
<g clip-path="url(#clip0)">
<path d="M49.5127 11.3445C49.3736 11.2476 48.1213 10.4525 45.4313 10.4525C44.7356 10.4525 44.0167 10.5107 43.321 10.6076C42.8108 7.6406 39.8657 6.20556 39.7497 6.12799L39.0309 5.77893L38.5671 6.34131C37.9873 7.09761 37.5467 7.95088 37.2916 8.82353C36.8046 10.5107 37.1061 12.1008 38.1264 13.4583C36.8974 14.0401 34.903 14.1758 34.4856 14.1952H1.55578C0.697751 14.1952 0.00205013 14.777 0.00205013 15.4945C-0.0443299 17.8992 0.44266 20.3038 1.43983 22.5727C2.57614 25.055 4.26901 26.8972 6.44888 28.022C8.90702 29.2825 12.9189 30 17.4409 30C19.4817 30 21.5224 29.8449 23.5399 29.5346C26.3459 29.108 29.036 28.2935 31.5173 27.1105C33.558 26.1215 35.39 24.861 36.9438 23.3872C39.5642 20.9244 41.118 18.1707 42.2543 15.7272C42.4166 15.7272 42.5557 15.7272 42.7181 15.7272C45.5704 15.7272 47.3329 14.777 48.3069 13.9625C48.9562 13.4583 49.4432 12.8378 49.791 12.1396L49.9997 11.6354L49.5127 11.3445Z" fill="#808688"/>
<path d="M4.61689 13.4001H9.02299C9.2317 13.4001 9.41722 13.2644 9.41722 13.0705V9.77376C9.41722 9.59923 9.25489 9.44409 9.02299 9.44409H4.61689C4.40818 9.44409 4.22266 9.57984 4.22266 9.77376V13.0705C4.24585 13.2644 4.40818 13.4001 4.61689 13.4001Z" fill="#808688"/>
<path d="M10.6931 13.4001H15.0992C15.3079 13.4001 15.4934 13.2644 15.4934 13.0705V9.77376C15.4934 9.59923 15.3311 9.44409 15.0992 9.44409H10.6931C10.4843 9.44409 10.2988 9.57984 10.2988 9.77376V13.0705C10.322 13.2644 10.4843 13.4001 10.6931 13.4001Z" fill="#808688"/>
<path d="M16.885 13.4001H21.2911C21.4998 13.4001 21.6853 13.2644 21.6853 13.0705V9.77376C21.6853 9.59923 21.523 9.44409 21.2911 9.44409H16.885C16.6762 9.44409 16.4907 9.57984 16.4907 9.77376V13.0705C16.4907 13.2644 16.6531 13.4001 16.885 13.4001Z" fill="#808688"/>
<path d="M22.9836 13.4001H27.3897C27.5984 13.4001 27.7839 13.2644 27.7839 13.0705V9.77376C27.7839 9.59923 27.6216 9.44409 27.3897 9.44409H22.9836C22.7749 9.44409 22.5894 9.57984 22.5894 9.77376V13.0705C22.5894 13.2644 22.7749 13.4001 22.9836 13.4001Z" fill="#808688"/>
<path d="M10.6931 8.68773H15.0992C15.3079 8.68773 15.4934 8.53259 15.4934 8.35806V5.06136C15.4934 4.88683 15.3311 4.73169 15.0992 4.73169H10.6931C10.4843 4.73169 10.2988 4.86744 10.2988 5.06136V8.35806C10.322 8.53259 10.4843 8.68773 10.6931 8.68773Z" fill="#808688"/>
<path d="M16.885 8.68773H21.2911C21.4998 8.68773 21.6853 8.53259 21.6853 8.35806V5.06136C21.6853 4.88683 21.523 4.73169 21.2911 4.73169H16.885C16.6762 4.73169 16.4907 4.86744 16.4907 5.06136V8.35806C16.4907 8.53259 16.6531 8.68773 16.885 8.68773Z" fill="#808688"/>
<path d="M22.9836 8.68773H27.3897C27.5984 8.68773 27.7839 8.53259 27.7839 8.35806V5.06136C27.7839 4.88683 27.5984 4.73169 27.3897 4.73169H22.9836C22.7749 4.73169 22.5894 4.86744 22.5894 5.06136V8.35806C22.5894 8.53259 22.7749 8.68773 22.9836 8.68773Z" fill="#808688"/>
<path d="M22.9836 3.95604H27.3897C27.5984 3.95604 27.7839 3.8203 27.7839 3.62637V0.32967C27.7839 0.155139 27.5984 0 27.3897 0H22.9836C22.7749 0 22.5894 0.135747 22.5894 0.32967V3.62637C22.5894 3.8009 22.7749 3.95604 22.9836 3.95604Z" fill="#808688"/>
<path d="M29.1291 13.4001H33.5352C33.7439 13.4001 33.9294 13.2644 33.9294 13.0705V9.77376C33.9294 9.59923 33.7671 9.44409 33.5352 9.44409H29.1291C28.9204 9.44409 28.7349 9.57984 28.7349 9.77376V13.0705C28.7581 13.2644 28.9204 13.4001 29.1291 13.4001Z" fill="#808688"/>
</g>
<defs>
<clipPath id="clip0">
<rect width="50" height="30" fill="white"/>
</clipPath>
</defs>
</svg>
