<svg width="99" height="99" viewBox="0 0 99 99" fill="none" xmlns="http://www.w3.org/2000/svg">
<g clip-path="url(#clip0)">
<path d="M66.4936 98.5127C62.98 99.6613 58.9043 98.5705 56.0356 95.9677C52.1252 92.4228 51.7697 87.8203 52.7783 82.8789C53.481 79.4167 54.5309 76.004 54.9278 72.517C55.399 68.3607 53.3157 66.2288 49.4135 66.1958C45.4949 66.171 43.3702 68.2863 43.7836 72.4096C44.1142 75.6322 45.0898 78.7887 45.7181 81.9865C46.4373 85.6553 46.9334 89.7869 45.0071 93.183C42.8494 97.0005 37.0954 99.8844 32.7468 98.7688C27.2491 97.3641 24.4052 91.4147 27.7121 86.6965C27.9684 87.2749 28.1833 87.7542 28.39 88.2251C30.4568 92.8194 33.4991 94.5795 36.8556 93.1086C40.4023 91.5634 41.1628 87.9855 38.8894 83.259C37.4757 80.3091 35.7065 77.5162 35.0699 74.244C34.6813 72.2774 33.5735 71.4924 31.5646 71.8229C27.3731 72.517 23.1403 72.5005 18.9075 72.5914C14.9392 72.674 12.1118 74.525 11.0536 78.4995C9.90448 82.8376 11.5083 87.0601 14.9557 89.2663C15.6337 89.7042 16.9812 89.5803 16.6836 91.0181C12.4839 91.3982 9.51592 89.9934 7.84594 86.1098C4.16703 77.5575 6.96961 70.8561 14.7573 65.8983C1.69513 59.1887 -3.15773 49.8431 2.06715 42.1502C5.53112 54.1978 11.7481 59.1639 20.7511 57.0568C20.7841 55.9 19.7507 55.5281 19.1059 54.9001C11.2438 47.2568 10.2765 39.6713 15.923 30.21C18.056 26.6321 21.2471 24.0127 23.9836 20.9802C26.9184 17.7328 26.5547 16.4272 22.5203 15.163C21.8919 14.9646 21.0404 15.0886 20.8833 14.2375C20.7015 13.2542 21.4703 12.7584 22.1978 12.4031C24.4713 11.2793 26.7283 11.4032 28.7703 12.9071C30.9611 14.5184 31.1347 16.8486 30.432 19.1953C29.2663 23.0872 26.6373 26.0868 23.9918 29.0532C20.222 33.2839 19.0646 38.0848 21.0652 43.4805C23.4462 49.8762 29.0927 51.4048 34.4747 47.1659C36.3348 45.7033 37.7981 44.3234 35.5246 41.8858C34.2018 40.4728 33.6562 38.3987 33.9869 36.5065C34.5408 33.3913 33.6893 30.6232 32.846 27.7228C30.7213 20.3439 31.7878 13.3533 36.2769 7.07339C42.9486 -2.28868 55.6222 -2.37958 62.3435 6.94118C67.1302 13.5847 68.0479 20.9636 65.5925 28.7557C64.9807 30.6976 64.1292 32.5733 64.5756 34.7217C65.1626 37.5394 64.6087 40.167 62.8312 42.4477C61.988 43.5301 61.649 44.3895 62.608 45.695C66.6672 51.2313 74.4963 50.5951 77.2823 44.373C79.7708 38.8119 78.8283 33.7053 74.8352 29.1771C72.2063 26.1942 69.5525 23.2277 68.3455 19.3523C67.618 17.0139 67.7006 14.692 69.8253 13.0146C71.6854 11.5437 73.8184 11.3289 76.0174 12.1717C76.9103 12.5105 77.9189 12.998 77.8693 14.1053C77.8197 15.1712 76.7202 14.9977 75.9678 15.2208C72.322 16.2867 71.8673 17.6254 74.3805 20.567C76.3316 22.8476 78.6216 24.8308 80.5644 27.1196C88.7324 36.7627 88.1951 46.6288 79.1425 55.3629C78.6216 55.8669 77.6213 56.2057 78.1587 57.4121C81.912 58.1393 85.409 57.346 88.6746 55.3629C93.6597 52.3303 96.1729 47.7608 96.3218 41.7453C98.9342 43.1335 99.5708 49.5374 98.5704 52.0659C95.8919 58.8086 91.2126 63.5598 83.5985 65.576C92.3618 72.4096 94.66 79.9621 90.667 86.6717C88.9143 89.6133 85.4338 92.241 81.9451 90.4644C82.7139 90.8611 86.3928 86.6386 86.7896 85.9693C88.1703 83.6474 88.3439 80.9123 87.6329 78.3425C86.5995 74.5828 83.7473 72.7567 78.8035 72.5418C74.9923 72.3765 71.1811 72.0956 67.3699 71.8725C66.1629 71.8064 64.5922 71.385 64.2036 72.9302C63.0297 77.6153 60.1775 81.5982 58.7638 86.1428C57.8544 89.0432 58.7803 91.6213 61.6904 93.0095C64.617 94.3977 67.0475 93.3648 68.8663 90.9272C69.693 89.8117 70.1725 88.4813 71.0406 87.4154C73.7688 89.4068 72.2972 93.7697 70.5859 95.7776C69.4119 97.1162 68.0065 98.0169 66.4936 98.5127Z" fill="white" fill-opacity="0.5"/>
</g>
<defs>
<clipPath id="clip0">
<rect width="99" height="99" fill="white"/>
</clipPath>
</defs>
</svg>
