<svg width="54" height="54" viewBox="0 0 54 54" fill="none" xmlns="http://www.w3.org/2000/svg">
<path d="M36.2698 53.7346C34.3533 54.3611 32.1301 53.7662 30.5654 52.3464C28.4324 50.4129 28.2385 47.9024 28.7887 45.2071C29.172 43.3186 29.7447 41.4572 29.9611 39.5552C30.2182 37.2881 29.0818 36.1252 26.9534 36.1072C24.8159 36.0937 23.657 37.2475 23.8825 39.4966C24.0628 41.2544 24.5949 42.9761 24.9377 44.7203C25.33 46.7215 25.6005 48.9751 24.5499 50.8275C23.3729 52.9098 20.2344 54.4828 17.8624 53.8743C14.8637 53.1081 13.3125 49.863 15.1162 47.2894C15.256 47.6049 15.3732 47.8663 15.486 48.1232C16.6133 50.6292 18.2728 51.5892 20.1036 50.787C22.0381 49.9441 22.453 47.9925 21.2129 45.4144C20.4418 43.8054 19.4768 42.282 19.1296 40.4972C18.9176 39.4245 18.3134 38.9963 17.2176 39.1766C14.9313 39.5552 12.6225 39.5462 10.3137 39.5957C8.14919 39.6408 6.60698 40.6504 6.02978 42.8183C5.40297 45.1846 6.2778 47.4877 8.15821 48.6911C8.52798 48.93 9.26301 48.8624 9.10068 49.6466C6.8099 49.854 5.19103 49.0878 4.28013 46.9694C2.27345 42.3045 3.80214 38.6492 8.04999 35.945C0.925147 32.2852 -1.72187 27.1876 1.12807 22.9914C3.0175 29.5629 6.40857 32.2716 11.3193 31.1223C11.3373 30.4913 10.7737 30.2885 10.4219 29.946C6.1335 25.7769 5.6059 21.6393 8.68581 16.4786C9.84924 14.527 11.5899 13.0983 13.0825 11.4442C14.6833 9.67286 14.4849 8.96073 12.2843 8.27114C11.9416 8.16297 11.4771 8.23058 11.3914 7.76634C11.2922 7.22999 11.7116 6.95957 12.1084 6.76576C13.3485 6.15279 14.5796 6.2204 15.6934 7.04069C16.8884 7.91959 16.9831 9.1906 16.5998 10.4706C15.964 12.5935 14.53 14.2296 13.087 15.8476C11.0307 18.1553 10.3994 20.7739 11.4907 23.7171C12.7894 27.2056 15.8693 28.0394 18.8049 25.7273C19.8195 24.9295 20.6177 24.1768 19.3776 22.8472C18.6561 22.0765 18.3585 20.9452 18.5388 19.9131C18.841 18.2139 18.3765 16.704 17.9165 15.122C16.7576 11.0971 17.3393 7.28408 19.7879 3.85866C23.427 -1.24793 30.3399 -1.29751 34.0061 3.78654C36.617 7.41028 37.1175 11.4352 35.7782 15.6854C35.4445 16.7446 34.9801 17.7677 35.2236 18.9395C35.5438 20.4765 35.2416 21.9097 34.2721 23.1537C33.8121 23.7441 33.6273 24.2129 34.1504 24.925C36.3645 27.9448 40.6349 27.5977 42.1545 24.2039C43.5119 21.1706 42.9978 18.3852 40.8197 15.9152C39.3858 14.2882 37.9382 12.6701 37.2799 10.5563C36.883 9.28074 36.9281 8.01424 38.0871 7.09929C39.1017 6.29702 40.2651 6.17983 41.4646 6.63956C41.9516 6.82435 42.5018 7.09027 42.4747 7.69423C42.4476 8.27565 41.8479 8.181 41.4375 8.30269C39.4489 8.88411 39.2009 9.61427 40.5717 11.2188C41.6359 12.4628 42.885 13.5445 43.9448 14.793C48.4 20.0528 48.1069 25.4343 43.1691 30.1984C42.8851 30.4733 42.3394 30.6581 42.6325 31.3161C44.6798 31.7128 46.5873 31.2801 48.3685 30.1984C51.0876 28.5442 52.4585 26.0518 52.5397 22.7706C53.9646 23.5278 54.3119 27.0208 53.7662 28.4C52.3052 32.0778 49.7529 34.6694 45.5997 35.7692C50.3797 39.4966 51.6333 43.6161 49.4552 47.2759C48.4992 48.8804 46.6008 50.3137 44.6978 49.3447C45.1172 49.561 47.1239 47.2579 47.3403 46.8928C48.0934 45.6263 48.1881 44.1344 47.8003 42.7327C47.2366 40.682 45.6809 39.6859 42.9843 39.5687C40.9054 39.4785 38.8266 39.3253 36.7478 39.2036C36.0894 39.1676 35.2326 38.9377 35.0207 39.7805C34.3803 42.3361 32.8246 44.5085 32.0535 46.9874C31.5575 48.5694 32.0625 49.9757 33.6498 50.7329C35.2461 51.4901 36.5719 50.9267 37.564 49.5971C38.0149 48.9886 38.2765 48.263 38.7499 47.6815C40.238 48.7678 39.4354 51.1475 38.5019 52.2428C37.8616 52.9729 37.095 53.4642 36.2698 53.7346Z" fill="white" fill-opacity="0.5"/>
</svg>
