<svg width="54" height="54" viewBox="0 0 54 54" fill="none" xmlns="http://www.w3.org/2000/svg">
<path d="M49.658 0H3.39307C1.51313 0 0 1.51313 0 3.39307V49.658C0 51.5151 1.51313 53.0511 3.39307 53.0511H49.658C51.538 53.0511 53.0511 51.538 53.0511 49.658V3.39307C53.0282 1.51313 51.515 0 49.658 0ZM24.0954 29.8957C24.0954 31.363 23.9578 32.6239 23.6827 33.6556C23.4076 34.6873 22.972 35.5355 22.4218 36.1775C21.8486 36.8194 21.1379 37.3008 20.3126 37.5989C19.4643 37.8969 18.4785 38.0345 17.3551 38.0345C16.3693 38.0345 15.4751 37.874 14.6727 37.576C13.8703 37.255 13.2055 36.8194 12.6323 36.2462C12.0821 35.6731 11.6465 34.9624 11.3255 34.137C11.0275 33.3117 10.867 32.3946 10.867 31.3859V30.721H14.0537C14.0537 33.6785 15.1542 35.1687 17.3322 35.1687C17.8824 35.1687 18.3868 35.0999 18.8224 34.9624C19.258 34.8248 19.6248 34.5726 19.9457 34.2058C20.2438 33.839 20.473 33.3117 20.6335 32.6468C20.794 31.982 20.8628 31.1108 20.8628 30.0333V13.5035H24.0724V29.8957H24.0954ZM41.8173 34.7102C41.4963 35.375 41.0149 35.9711 40.4188 36.4526C39.8227 36.957 39.0891 37.3467 38.2179 37.6218C37.3467 37.8969 36.3838 38.0345 35.3063 38.0345C30.5605 38.0345 28.0616 36.1545 27.8094 32.4176H30.9274C30.9503 34.5268 32.3946 35.6043 35.2833 35.6043C35.9253 35.6043 36.4984 35.5355 36.9799 35.398C37.4842 35.2604 37.8969 35.0541 38.2179 34.8248C38.5388 34.5726 38.791 34.2746 38.9744 33.9536C39.1349 33.6097 39.2266 33.2658 39.2266 32.8532C39.2266 32.4405 39.1579 32.0966 39.0432 31.8444C38.9057 31.5922 38.6535 31.363 38.2867 31.1566C37.9198 30.9503 37.3925 30.7669 36.7506 30.5835C36.0858 30.4001 35.2375 30.1479 34.1829 29.8728C33.1512 29.6206 32.2571 29.3684 31.5005 29.0933C30.744 28.8411 30.125 28.5431 29.6664 28.1762C29.185 27.8094 28.8182 27.3509 28.5889 26.8236C28.3596 26.2963 28.245 25.6085 28.245 24.7832C28.245 24.0725 28.4055 23.4076 28.7035 22.7886C29.0016 22.1696 29.4372 21.6423 30.0103 21.1838C30.5835 20.7252 31.2483 20.3813 32.0737 20.1292C32.8761 19.877 33.7702 19.7394 34.756 19.7394C39.3413 19.7394 41.6797 21.3672 41.7485 24.6456H38.6764C38.5618 23.0179 37.3467 22.1925 34.9853 22.1925C34.458 22.1925 33.9765 22.2384 33.5409 22.353C33.1054 22.4676 32.7156 22.6052 32.3717 22.8115C32.0278 23.0179 31.7986 23.2471 31.5922 23.5452C31.4088 23.8203 31.3171 24.1642 31.3171 24.531C31.3171 24.8749 31.363 25.15 31.4547 25.3792C31.5464 25.6085 31.7527 25.8148 32.0737 25.9983C32.3946 26.1817 32.8761 26.3651 33.4951 26.5485C34.137 26.7319 34.9853 26.9612 36.0857 27.2363C37.1404 27.4885 38.0574 27.7636 38.8369 28.0387C39.6164 28.3138 40.2583 28.6577 40.7856 29.0245C41.3129 29.4142 41.6797 29.8957 41.9319 30.4459C42.1841 30.9962 42.2987 31.7069 42.2987 32.5551C42.3217 33.2888 42.1382 34.0224 41.8173 34.7102Z" fill="white" fill-opacity="0.5"/>
</svg>
