<svg width="50" height="58" viewBox="0 0 50 58" fill="none" xmlns="http://www.w3.org/2000/svg">
<path d="M36.9212 25.5062C36.9212 25.5062 36.444 21.3782 32.0479 21.3782C27.6518 21.3782 24.645 21.9552 24.645 24.4032C24.645 26.8511 33.1966 26.8511 36.444 27.81C39.6915 28.7688 42.5589 31.2634 41.1273 35.6799C39.6957 40.0964 35.2996 40.5758 28.5133 40.5758C21.727 40.5758 20.1982 34.912 20.1982 32.7059H24.02C24.02 32.7059 23.5428 36.1593 28.0319 36.7363C32.5209 37.3133 36.8156 37.6357 37.3942 34.1441C38.1628 29.5367 22.8756 31.8404 21.5369 27.3305C20.4052 23.5207 21.0597 18.4975 28.7033 17.7296C36.3469 16.9617 40.553 20.3515 40.553 25.4087L36.9212 25.5062Z" fill="white" fill-opacity="0.5"/>
<path d="M0 43.4989L8.45017 48.3991C12.6943 50.8598 18.0025 47.7839 18.0025 42.8583V34.2714V18.4678H14.5608V41.8995C14.5608 44.5893 11.6639 46.2693 9.34544 44.9244L3.44595 41.5007V16.4951L25 3.99649L46.5541 16.4993V41.5049L25 54.0035L18.7922 50.4016L14.7382 52.0434L25 57.9958L50 43.4947V14.5011L25 0L0 14.5011V43.4989Z" fill="white" fill-opacity="0.5"/>
</svg>
