<svg width="49" height="56" viewBox="0 0 49 56" fill="none" xmlns="http://www.w3.org/2000/svg">
<path d="M48.1087 13.0278C47.2643 11.7568 45.4699 10.274 41.4589 10.274C38.7145 10.3799 36.0757 10.8036 33.4368 11.6509C31.4313 4.55445 28.1592 0 24.4648 0C20.7705 0 17.4983 4.55445 15.4928 11.6509C12.9595 10.8036 10.2151 10.3799 7.47076 10.274C3.35419 10.274 1.55978 11.7568 0.71536 13.0278C-0.867937 15.6758 0.187594 19.7006 3.7764 24.361C4.72638 25.632 5.78191 26.7971 6.83744 27.9622C5.78191 29.1273 4.72638 30.2924 3.7764 31.4575C0.187594 36.2237 -0.867937 40.2486 0.820913 42.8965C1.66534 44.1675 3.45974 45.6504 7.57631 45.6504C10.3207 45.5445 12.9595 45.1208 15.5983 44.2735C17.6039 51.3699 20.876 55.9244 24.5704 55.9244C28.2647 55.9244 31.6424 51.3699 33.5424 44.2735C36.0757 45.1208 38.82 45.5445 41.5644 45.6504C45.681 45.6504 47.4754 44.1675 48.2143 42.8965C49.9031 40.2486 48.8476 36.2237 45.2588 31.4575C44.3088 30.1865 43.2533 29.0214 42.1977 27.9622C43.2533 26.7971 44.3088 25.632 45.2588 24.361C48.742 19.7006 49.7976 15.6758 48.1087 13.0278ZM7.47076 43.638C5.78191 43.638 3.45974 43.3202 2.50976 41.8374C1.34868 40.0368 2.40421 36.7533 5.3597 32.8344C6.30968 31.6693 7.25965 30.5042 8.31518 29.445C10.004 31.0338 11.7984 32.5166 13.5928 33.8936C13.8039 36.7533 14.2262 39.5072 14.8595 42.261C12.5373 43.1084 10.004 43.532 7.47076 43.638ZM13.4873 31.1397C12.2206 30.0805 10.954 29.0214 9.79293 27.9622C10.954 26.903 12.1151 25.8438 13.4873 24.7847C13.4873 25.8438 13.3817 26.903 13.3817 27.9622C13.3817 29.0214 13.4873 30.0805 13.4873 31.1397ZM13.6984 22.0308C11.7984 23.4077 10.1096 24.8906 8.31518 26.4793C7.25965 25.4202 6.30967 24.2551 5.46525 23.09C2.50976 19.171 1.45423 15.8876 2.61532 14.087C3.56529 12.6042 5.78191 12.2864 7.57631 12.2864C10.1096 12.3923 12.6429 12.816 15.0706 13.5574C14.3317 16.4172 13.9095 19.171 13.6984 22.0308ZM32.9091 20.3361C32.0646 19.7006 31.2202 19.171 30.2702 18.6415C29.1091 17.9 27.9481 17.1586 26.6814 16.5231C28.3703 15.6758 30.0591 14.9343 31.8535 14.2988C32.3813 16.3113 32.698 18.3237 32.9091 20.3361ZM24.4648 2.01243C26.9981 2.01243 29.7425 5.82546 31.4313 12.2864C29.1092 13.1338 26.6814 14.087 24.4648 15.2521C22.2482 14.087 19.8205 13.0278 17.4983 12.1805C19.1872 5.82546 21.9315 2.01243 24.4648 2.01243ZM16.9705 14.2988C18.7649 14.9343 20.4538 15.6758 22.1426 16.5231C20.9816 17.1586 19.8205 17.9 18.5538 18.6415C17.6039 19.171 16.7594 19.8065 15.915 20.3361C16.2317 18.3237 16.5483 16.3113 16.9705 14.2988ZM16.0206 35.5882C16.865 36.2237 17.7094 36.7533 18.6594 37.3888C19.8205 38.1303 20.9816 38.8717 22.2482 39.5072C20.4538 40.3545 18.7649 41.0959 17.0761 41.7314C16.5483 39.6131 16.2317 37.6007 16.0206 35.5882ZM24.4648 53.9119C21.9315 53.9119 19.1872 50.0989 17.4983 43.638C19.926 42.7906 22.2482 41.8374 24.4648 40.6723C26.6814 41.8374 29.1092 42.7906 31.4313 43.7439C29.7425 50.0989 26.9981 53.9119 24.4648 53.9119ZM31.9591 41.6255C30.2702 40.99 28.5814 40.2486 26.787 39.4013C27.9481 38.7658 29.1092 38.0243 30.3758 37.2829C31.2202 36.7533 32.1702 36.1178 33.0146 35.4823C32.698 37.6007 32.3813 39.6131 31.9591 41.6255ZM33.2257 32.8344C31.9591 33.7876 30.5869 34.635 29.2147 35.5882C27.6314 36.5415 26.0481 37.4948 24.4648 38.3421C22.8815 37.4948 21.2982 36.5415 19.7149 35.5882C18.3427 34.7409 16.9705 33.7876 15.7039 32.8344C15.5983 31.2456 15.4928 29.6569 15.4928 27.9622C15.4928 26.2675 15.5983 24.6787 15.7039 23.09C16.9705 22.1367 18.3427 21.2894 19.7149 20.3361C21.2982 19.3829 22.8815 18.4296 24.4648 17.5823C26.0481 18.4296 27.6314 19.277 29.2147 20.3361C30.5869 21.1835 31.9591 22.1367 33.2257 23.09C33.3313 24.6787 33.4368 26.2675 33.4368 27.9622C33.4368 29.6569 33.3313 31.2456 33.2257 32.8344ZM43.4644 32.8344C46.4199 36.7533 47.4754 40.0368 46.3143 41.8374C45.3643 43.3202 43.1477 43.638 41.3533 43.638C38.82 43.532 36.2868 43.1084 33.859 42.261C34.4924 39.5072 34.9146 36.7533 35.1257 33.8936C37.0256 32.5166 38.7145 31.0338 40.4033 29.445C41.5644 30.5042 42.5144 31.6693 43.4644 32.8344ZM35.4423 24.7847C36.709 25.8438 37.9756 26.903 39.1367 27.9622C37.9756 29.0214 36.8145 30.0805 35.4423 31.1397C35.4423 30.0805 35.5479 29.0214 35.5479 27.9622C35.5479 26.903 35.4423 25.8438 35.4423 24.7847ZM40.6144 26.4793C38.9256 24.8906 37.1312 23.4077 35.3368 22.0308C35.1257 19.277 34.7035 16.4172 34.0701 13.6633C36.4979 12.816 39.0311 12.3923 41.5644 12.2864C43.2533 12.2864 45.5754 12.6042 46.5254 14.087C47.6865 15.8876 46.631 19.171 43.6755 23.09C42.5144 24.2551 41.5644 25.4202 40.6144 26.4793Z" fill="white" fill-opacity="0.5"/>
<path d="M24.4654 22.9843C21.721 22.9843 19.5044 25.2085 19.5044 27.9624C19.5044 30.7162 21.721 32.9405 24.4654 32.9405C27.2098 32.9405 29.4264 30.7162 29.4264 27.9624C29.4264 25.2085 27.2098 22.9843 24.4654 22.9843Z" fill="white" fill-opacity="0.5"/>
</svg>
