<svg width="56" height="78" viewBox="0 0 56 78" fill="none" xmlns="http://www.w3.org/2000/svg">
<path d="M34.8664 23.7235V19.0507H37.3825C37.7419 19.0507 38.1014 19.0507 38.1014 18.6912L54.9954 2.15668C55.3548 1.79723 55.3548 1.43779 55.3548 0.718894C55.3548 0.359447 54.9954 0 54.2765 0H38.4608C38.1014 0 37.7419 0 37.7419 0.359447L27.6774 10.424L17.6129 0.359447C17.6129 0 17.2535 0 16.894 0H1.07833C0.718884 0 0.359447 0.359447 0 0.718894C0 1.07834 8.23512e-06 1.79723 0.359455 2.15668L17.2534 18.6912C17.6129 19.0507 17.6129 19.0507 17.9723 19.0507H20.4885V23.3641C8.98616 26.5991 0 37.3825 0 50.3226C0 65.4193 12.5807 78 27.6774 78C43.1337 78 55.3548 65.4193 55.3548 50.3226C55.3548 37.3825 46.7281 26.5991 34.8664 23.7235ZM39.1797 2.51613H51.4009L37.023 16.894H34.1475L29.4746 12.2212L39.1797 2.51613ZM3.9539 2.51613H16.1751L30.553 16.894H29.1152H21.5668H18.3318L3.9539 2.51613ZM23.0046 19.0507H29.1152H32.3502V23.0046C30.9124 22.6452 29.1152 22.6452 27.6774 22.6452C26.2396 22.6452 24.4424 22.6452 23.0046 23.0046V19.0507ZM27.6774 75.8433C13.659 75.8433 2.51612 64.341 2.51612 50.3226C2.51612 36.3041 14.0184 24.8018 27.6774 24.8018C41.6959 24.8018 52.8387 36.3041 52.8387 50.3226C52.8387 64.341 41.6959 75.8433 27.6774 75.8433Z" fill="#43BC70"/>
<path d="M14.7362 36.3032C15.0957 36.3032 15.4551 36.3032 15.4551 35.9437C16.5335 34.8654 17.6118 34.1465 19.0496 33.4276C19.7685 33.0682 19.7685 32.3493 19.409 31.9898C19.0496 31.2709 18.3307 31.2709 17.9713 31.6304C16.5335 32.3493 15.0957 33.4276 14.0173 34.506C13.6579 34.8654 13.2985 35.5843 14.0173 36.3032C14.0173 36.3032 14.3768 36.3032 14.7362 36.3032Z" fill="#43BC70"/>
<path d="M10.7827 39.5344C10.0638 39.1749 9.34491 39.5344 9.34491 39.8938C8.62602 41.3316 7.90712 42.7694 7.54767 44.2072C7.54767 44.9261 7.54765 45.645 8.26654 45.645H8.626C8.98545 45.645 9.70437 45.2855 9.70437 44.9261C10.0638 43.4883 10.7827 42.0505 11.5016 40.9722C11.5016 40.6127 11.5016 39.8938 10.7827 39.5344Z" fill="#43BC70"/>
<path d="M35.5834 33.0638C37.0212 33.7827 38.0996 34.5016 39.1779 35.2205C39.5374 35.2205 39.5374 35.5799 39.8968 35.5799C40.2562 35.5799 40.6157 35.5799 40.9752 35.2205C41.3346 34.861 41.3346 33.7827 40.6157 33.4232C39.1779 32.3449 38.0996 31.626 36.3023 30.9071C35.5835 30.5477 34.8646 30.9071 34.8646 31.626C34.8646 32.3449 34.8645 33.0638 35.5834 33.0638Z" fill="#43BC70"/>
<path d="M24.7987 31.6264C24.7987 31.6264 25.1581 31.6264 24.7987 31.6264C25.877 31.6264 26.9554 31.267 27.6743 31.267C28.0337 31.267 28.7526 31.267 29.1121 31.267C29.831 31.267 30.1904 30.9075 30.5499 30.1886C30.5499 29.4697 30.1904 29.1103 29.4715 28.7508C28.7526 28.7508 28.3932 28.7508 27.6743 28.7508C26.596 28.7508 25.5176 28.7508 24.4393 29.1103C23.7204 29.1103 23.3609 29.8292 23.3609 30.5481C23.7203 31.267 24.4392 31.6264 24.7987 31.6264Z" fill="#43BC70"/>
<path d="M8.98366 51.4008C8.98366 50.682 8.26478 50.3225 7.90533 50.3225C7.18644 50.3225 6.82697 51.0414 6.82697 51.7603C6.82697 53.1981 7.18643 54.9953 7.54588 56.4331C7.54588 56.7926 8.26476 57.152 8.62421 57.152H8.98366C9.70256 57.152 10.062 56.4331 9.70257 55.7142C9.34313 54.2764 8.98366 52.8386 8.98366 51.4008Z" fill="#43BC70"/>
<path d="M46.7307 50.3254C46.7307 51.7632 46.7307 53.201 46.3713 54.6387C46.3713 55.3576 46.7307 56.0765 47.0902 56.0765H47.4496C47.8091 56.0765 48.528 55.7171 48.528 54.9982C48.8874 53.5604 49.2469 51.7632 49.2469 50.3254H48.1685H49.2469C49.2469 49.6065 48.8874 49.247 48.1685 49.247C47.0902 49.247 46.7307 49.6065 46.7307 50.3254Z" fill="#43BC70"/>
<path d="M43.8481 38.461C43.1292 38.8205 43.1292 39.5394 43.4887 40.2583C44.2076 41.3366 44.9265 42.7744 45.2859 44.2122C45.2859 44.5716 46.0048 44.9311 46.3642 44.9311H46.7237C47.4426 44.5716 47.802 43.8527 47.4426 43.4933C46.7237 42.0555 46.0048 40.6177 45.2859 39.1799C45.2859 38.1016 44.567 38.1016 43.8481 38.461Z" fill="#43BC70"/>
<path d="M45.2919 60.0305C44.5731 59.671 43.8542 60.0305 43.4947 60.3899C42.7758 61.4683 41.6975 62.5466 40.6191 63.625C40.2597 63.9844 40.2597 64.7033 40.6191 65.4222C40.9786 65.7816 41.338 65.7816 41.338 65.7816C41.338 65.7816 42.0569 65.7816 42.0569 65.4222C43.1353 64.3438 44.2136 62.9061 44.9325 61.8277C46.0108 61.1088 46.0108 60.3899 45.2919 60.0305Z" fill="#43BC70"/>
<path d="M35.5872 67.5853C34.1494 68.3041 33.0711 68.6636 31.6333 69.023C30.9144 69.023 30.555 69.7419 30.555 70.4608C30.555 71.1797 31.2739 71.5392 31.6333 71.5392C31.6333 71.5392 31.6333 71.5392 31.9928 71.5392C33.4306 71.1797 35.2278 70.8203 36.6656 70.1014C37.3845 69.7419 37.3845 69.023 37.3845 68.6636C37.025 67.5853 36.3061 67.2258 35.5872 67.5853Z" fill="#43BC70"/>
<path d="M12.5818 61.4654C12.2223 61.1059 11.5034 60.7465 10.7845 61.1059C10.4251 61.4654 10.0656 62.1843 10.4251 62.9032C11.5034 64.341 12.5818 65.4193 13.6601 66.4977C14.0195 66.8571 14.0195 66.8571 14.379 66.8571C14.7384 66.8571 15.0979 66.8571 15.0979 66.4977C15.4573 66.1382 15.4573 65.0599 15.0979 64.7004C14.379 63.6221 13.3007 62.5437 12.5818 61.4654Z" fill="#43BC70"/>
<path d="M25.1625 69.0205C23.7248 68.661 22.287 68.3016 20.8492 67.9421C20.1303 67.5827 19.4114 67.9421 19.4114 68.661C19.0519 69.3799 19.4114 70.0988 20.1303 70.0988C21.5681 70.8177 23.3653 71.1772 24.8031 71.1772C25.522 71.1772 25.8815 70.8177 25.8815 70.0988C26.2409 69.7394 25.8814 69.0205 25.1625 69.0205Z" fill="#43BC70"/>
<path d="M36.6679 62.8992C37.0274 62.5398 37.3868 62.1803 37.0273 61.8209L35.5895 53.1942L41.7001 47.0836C42.0596 46.7241 42.0596 46.3647 42.0596 46.0052C42.0596 45.6458 41.7002 45.2863 40.9813 45.2863L32.3545 43.8485L28.7601 35.9407C28.4006 35.2218 26.9628 35.2218 26.6034 35.9407L22.6495 43.8485L14.3822 44.9269C14.0227 44.9269 13.6633 45.2863 13.3038 45.6458C13.3038 46.0052 13.3038 46.7241 13.6633 46.7241L19.7739 52.8347L18.3361 61.4614C18.3361 61.8209 18.3361 62.1803 18.6956 62.5398C19.055 62.5398 19.055 62.8992 19.4144 62.8992C19.7739 62.8992 19.7739 62.8992 20.1333 62.8992L27.6817 58.9453L35.2301 62.8992C35.949 62.8992 36.3085 62.8992 36.6679 62.8992ZM28.4006 56.4292C28.0412 56.0697 27.6817 56.0697 27.3223 56.4292L21.2117 59.6642L22.29 52.8347C22.29 52.4753 22.29 52.1158 21.9306 51.7564L16.8983 47.0836L23.7278 46.0052C24.0872 46.0052 24.4467 45.6458 24.4467 45.2863L27.3223 39.1757L30.1979 45.2863C30.1979 45.6458 30.5573 46.0052 30.9167 46.0052L37.7462 47.0836L32.714 51.7564C32.3545 52.1158 32.3545 52.4753 32.3545 52.8347L33.4329 59.6642L28.4006 56.4292Z" fill="#43BC70"/>
</svg>
