<svg width="62" height="81" viewBox="0 0 62 81" fill="none" xmlns="http://www.w3.org/2000/svg">
<path d="M12.4055 72.4717C12.0408 73.2011 12.4055 73.9306 12.7703 74.2953C13.135 74.2953 13.135 74.66 13.4997 74.66C13.8644 74.66 14.2291 74.66 14.5939 74.2953C14.9586 73.9306 14.9586 72.8364 14.2291 72.4717C13.8644 72.1069 13.135 72.1069 12.4055 72.4717Z" fill="#43BC70"/>
<path d="M13.499 26.1427C13.8637 26.1427 13.8637 26.1427 14.2284 25.7779C14.5931 25.7779 14.9579 25.0485 14.5931 24.319C13.8637 23.9543 13.1342 23.5896 12.7695 23.9543C12.0401 24.3191 12.0401 25.4132 12.4048 25.7779C12.7695 26.1427 13.1342 26.1427 13.499 26.1427Z" fill="#43BC70"/>
<path d="M22.2504 76.4722C21.521 76.1075 20.7915 76.4722 20.7915 77.2016C20.4268 77.9311 20.7915 78.6605 21.521 78.6605H21.8857C22.2504 78.6605 22.9799 78.2958 22.9799 77.9311C23.3446 77.2016 22.9799 76.4722 22.2504 76.4722Z" fill="#43BC70"/>
<path d="M2.18861 57.1469C1.82389 57.5116 1.45917 58.241 1.45917 58.6057C1.45917 58.9705 2.18862 59.3352 2.55334 59.3352H2.91806C3.64751 59.3352 4.01223 58.6057 3.64751 57.8763C3.64751 57.5116 2.91806 57.1469 2.18861 57.1469Z" fill="#43BC70"/>
<path d="M2.55307 49.1232C2.55307 48.3937 2.18834 48.029 1.45889 48.029C0.729447 48.029 0 48.3937 0 49.1232C0 49.8526 0.364724 50.2173 1.09417 50.2173C1.82362 50.2173 2.55307 49.8526 2.55307 49.1232Z" fill="#43BC70"/>
<path d="M6.19817 65.9021C5.83345 66.2669 5.46872 66.9963 5.83345 67.361C6.19817 67.7258 6.56289 67.7258 6.92762 67.7258C7.29234 67.7258 7.29234 67.7258 7.65706 67.361C8.02179 67.361 8.38651 66.6316 8.02179 65.9021C7.65706 65.5374 6.92762 65.1727 6.19817 65.9021Z" fill="#43BC70"/>
<path d="M6.92767 32.6994C7.2924 32.6994 7.65712 32.6994 8.02184 32.3347C8.38657 31.97 8.38657 30.8758 7.65712 30.5111C6.92767 30.1464 6.19823 30.5111 5.8335 30.8758C5.46878 31.6053 5.46878 32.3347 6.19823 32.6994C6.56295 32.6994 6.56295 32.6994 6.92767 32.6994Z" fill="#43BC70"/>
<path d="M2.18861 41.0973H2.55334C2.91806 41.0973 3.64751 40.7325 3.64751 40.3678C4.01223 39.6384 3.64751 38.9089 2.91806 38.9089C2.18861 38.5442 1.45917 38.9089 1.45917 39.6384C1.45917 40.3678 1.82389 41.0973 2.18861 41.0973Z" fill="#43BC70"/>
<path d="M54.342 65.9021C53.9773 66.6316 53.9773 67.361 54.342 67.7258C54.7067 67.7258 54.7067 68.0905 55.0715 68.0905C55.4362 68.0905 55.8009 68.0905 56.1656 67.7258C56.5304 67.361 56.5304 66.2669 55.8009 65.9021C55.4362 65.1727 54.7067 65.5374 54.342 65.9021Z" fill="#43BC70"/>
<path d="M55.0709 32.7162C55.4357 32.7162 55.4357 32.7162 55.8004 32.3514C56.1651 31.9867 56.5298 31.2573 56.1651 30.5278C55.8004 30.1631 55.0709 30.1631 54.3415 30.5278C53.9768 30.8926 53.612 31.622 53.9768 32.3514C54.3415 32.7162 54.7062 32.7162 55.0709 32.7162Z" fill="#43BC70"/>
<path d="M31.0018 77.9296C30.2723 77.9296 29.9076 78.2943 29.9076 79.0238C29.9076 79.7532 30.2723 80.1179 31.0018 80.1179C31.7312 80.1179 32.0959 79.7532 32.0959 79.0238C32.0959 78.2943 31.7312 77.9296 31.0018 77.9296Z" fill="#43BC70"/>
<path d="M60.9059 47.6572C60.1764 47.6572 59.8117 48.0219 59.8117 48.7514C59.8117 49.4808 60.1764 49.8455 60.9059 49.8455C61.6353 49.8455 62 49.4808 62 48.7514C62 48.3866 61.6353 47.6572 60.9059 47.6572Z" fill="#43BC70"/>
<path d="M59.8173 57.1441C59.0878 56.7794 58.3584 57.1441 58.3584 57.8736C57.9936 58.603 58.3584 59.3325 59.0878 59.3325H59.4525C59.8173 59.3325 60.5467 58.9677 60.5467 58.603C60.9114 58.2383 60.5467 57.5088 59.8173 57.1441Z" fill="#43BC70"/>
<path d="M59.4525 41.0934H59.8173C60.5467 41.0934 60.9114 40.3639 60.5467 39.6345C60.182 38.9051 59.4525 38.5403 59.0878 38.5403C58.3584 38.9051 57.9936 39.6345 58.3584 40.3639C58.3584 40.7287 58.7231 41.0934 59.4525 41.0934Z" fill="#43BC70"/>
<path d="M39.7592 76.4722C39.3944 76.4722 39.0297 77.2016 39.0297 77.9311C39.0297 78.2958 39.7592 78.6605 40.1239 78.6605H40.4886C41.2181 78.2958 41.5828 77.9311 41.2181 77.2016C41.2181 76.4722 40.4886 76.1075 39.7592 76.4722Z" fill="#43BC70"/>
<path d="M47.777 72.4574C47.4123 72.8221 47.0475 73.5516 47.777 73.9163C48.1417 74.281 48.5064 74.281 48.8712 74.281C49.2359 74.281 49.2359 74.281 49.6006 73.9163C49.9653 73.9163 49.9653 73.1868 49.6006 72.4574C49.2359 72.0927 48.5064 71.728 47.777 72.4574Z" fill="#43BC70"/>
<path d="M48.5076 26.1425C48.8724 26.1425 49.2371 26.1425 49.6018 25.7777C49.9665 25.413 49.9665 24.3188 49.2371 23.9541C48.5076 23.5894 47.7782 23.5894 47.4135 24.3188C47.0487 24.6836 47.4135 25.413 47.7782 25.7777C48.1429 26.1425 48.1429 26.1425 48.5076 26.1425Z" fill="#43BC70"/>
<path d="M43.0411 33.8022C45.5941 10.0951 32.4641 1.7065 31.7347 0.977051C31.7347 0.977051 31.7346 0.977051 31.3699 0.977051C31.3699 0.977051 31.3699 0.977051 31.0052 0.977051C31.0052 0.977051 31.0052 0.977051 30.6405 0.977051C30.6405 0.977051 30.6405 0.977051 30.2758 0.977051C29.911 1.7065 16.4163 10.0951 19.334 33.8022C6.93344 44.0144 11.3101 57.1445 11.3101 57.1445C11.3101 57.5092 11.6748 57.8739 12.0396 57.8739C12.0396 57.8739 12.0396 57.8739 12.4043 57.8739C12.769 57.8739 13.1337 57.8739 13.1337 57.5092C16.4163 53.862 20.4282 53.1325 22.9813 53.1325L20.7929 57.5092C20.4282 57.8739 20.7929 58.2387 20.7929 58.6034C21.1577 58.9681 21.5224 59.3328 21.8871 59.3328H40.1233C40.488 59.3328 40.8527 58.9681 41.2175 58.6034C41.5822 58.2387 41.5822 57.8739 41.2175 57.5092L39.0291 53.1325C41.2175 53.1325 45.5941 53.862 48.8767 57.5092C49.2414 57.8739 49.6061 57.8739 49.9708 57.8739C49.9708 57.8739 49.9708 57.8739 50.3356 57.8739C50.7003 57.8739 51.065 57.5092 51.4297 57.1445C51.065 57.1445 55.077 44.0144 43.0411 33.8022ZM36.4761 50.9442H31.0052H25.8991C23.7107 44.7439 22.2518 38.9083 21.8871 34.1669C21.1577 26.5077 21.8871 20.6721 23.346 15.9307H39.3938C40.488 20.3074 41.2175 26.5077 40.488 33.8022C39.7586 38.9083 38.6644 44.3792 36.4761 50.9442ZM31.0052 3.53012C32.4641 4.62429 35.7466 7.54208 38.2997 13.3777H23.7107C26.2638 7.54208 29.5463 4.62429 31.0052 3.53012ZM13.1337 54.5914C12.4043 50.9442 12.4043 43.285 19.6988 36.72C20.4282 41.0967 21.5224 45.8381 23.346 50.9442C20.7929 50.9442 16.781 51.3089 13.1337 54.5914ZM23.7107 56.7798L25.5343 53.1325H31.0052H36.4761L38.2997 56.7798H23.7107ZM49.2414 54.5914C45.5941 51.3089 41.5822 50.9442 39.0291 50.9442C40.8527 45.8381 41.9469 41.0967 42.6764 36.72C49.6061 43.285 49.6061 50.9442 49.2414 54.5914Z" fill="#43BC70"/>
<path d="M31.0017 21.7578C28.0839 21.7578 25.5308 24.3109 25.5308 27.2287C25.5308 30.1464 28.0839 32.6995 31.0017 32.6995C33.9195 32.6995 36.4725 30.1464 36.4725 27.2287C36.4725 24.3109 33.9195 21.7578 31.0017 21.7578ZM31.0017 30.1464C29.1781 30.1464 28.0839 28.6875 28.0839 27.2287C28.0839 25.405 29.5428 24.3109 31.0017 24.3109C32.8253 24.3109 33.9195 25.7698 33.9195 27.2287C33.9195 29.0523 32.8253 30.1464 31.0017 30.1464Z" fill="#43BC70"/>
<path d="M31.0018 72.4725C31.7312 72.4725 32.0959 72.1078 32.0959 71.3783V64.8133C32.0959 64.0839 31.7312 63.7191 31.0018 63.7191C30.2723 63.7191 29.9076 64.0839 29.9076 64.8133V71.3783C29.9076 72.1078 30.2723 72.4725 31.0018 72.4725Z" fill="#43BC70"/>
<path d="M37.202 65.5381C36.4726 65.5381 36.1078 65.9028 36.1078 66.6323V73.1973C36.1078 73.9268 36.8373 74.2915 37.202 74.2915C37.9315 74.2915 38.2962 73.9268 38.2962 73.1973V66.997C38.2962 66.2676 37.5667 65.5381 37.202 65.5381Z" fill="#43BC70"/>
<path d="M25.1618 61.5289C24.4323 61.5289 24.0676 61.8936 24.0676 62.623V69.1881C24.0676 69.9175 24.4323 70.2822 25.1618 70.2822C25.8912 70.2822 26.256 69.9175 26.256 69.1881V62.623C26.256 61.8936 25.5265 61.5289 25.1618 61.5289Z" fill="#43BC70"/>
</svg>
