<svg width="66" height="67" viewBox="0 0 66 67" fill="none" xmlns="http://www.w3.org/2000/svg">
<path d="M59.6135 22.508C59.3094 22.508 59.0052 22.2039 58.7011 22.2039H28.286C25.5487 17.6416 20.6822 14.6001 15.2075 14.6001C6.69131 14.6001 0 21.5956 0 29.8076C0 38.0197 6.69131 45.0152 15.2075 45.0152C20.6822 45.0152 25.5487 41.9736 28.286 37.4114H35.2815C35.5856 37.4114 35.8898 37.4114 35.8898 37.1072L39.5396 33.4574H39.8437H40.1479L42.8852 36.1948C43.1894 36.4989 43.1894 36.4989 43.4935 36.4989C43.7977 36.4989 44.1018 36.4989 44.406 36.1948L47.1433 33.4574H47.4475H47.7516L50.489 36.1948C50.7931 36.4989 50.7931 36.4989 51.0973 36.4989C51.4015 36.4989 51.7056 36.4989 51.7056 36.1948L54.7471 33.1533H55.0513H55.3554L58.0928 35.8906C58.3969 36.1948 59.0052 36.1948 59.6135 35.8906L65.3924 30.1118C65.6965 29.8076 65.6965 29.1993 65.3924 28.591L59.6135 22.508ZM59.3094 34.0657L57.1803 31.9367C56.2679 31.0242 54.7471 31.0242 53.5305 31.9367L51.4015 34.0657L49.2724 31.9367C48.3599 31.0242 46.8392 31.0242 45.6226 31.9367L43.7977 34.0657L41.6686 31.9367C40.7562 31.0242 39.2354 31.0242 38.0188 31.9367L34.9773 35.2823H27.6777C27.3736 35.2823 27.0694 35.5865 26.7653 35.8906C24.6362 40.1487 20.0739 42.8861 15.2075 42.8861C7.90792 42.8861 2.12905 37.1072 2.12905 29.8076C2.12905 22.508 7.90792 16.7291 15.2075 16.7291C20.0739 16.7291 24.6362 19.4665 26.7653 23.7246C27.0694 24.0288 27.3736 24.3329 27.6777 24.3329H58.3969L63.5675 29.5035L59.3094 34.0657Z" fill="#43BC70"/>
<path d="M15.2062 22.5144C11.2522 22.5144 7.90659 25.86 7.90659 29.814C7.90659 33.768 10.9481 37.1136 15.2062 37.1136C17.9436 37.1136 20.3768 35.5928 21.5934 33.1596C22.2017 31.943 22.5058 31.0306 22.5058 29.814C22.5058 28.5974 22.2017 27.3808 21.5934 26.4683C20.3768 24.0351 17.9436 22.5144 15.2062 22.5144ZM19.7685 32.2472C18.856 34.0721 17.0311 34.9845 15.2062 34.9845C12.1647 34.9845 10.0356 32.5514 10.0356 29.814C10.0356 26.7725 12.4688 24.6434 15.2062 24.6434C17.3353 24.6434 18.856 25.86 19.7685 27.3808C20.0726 27.9891 20.3768 28.9015 20.3768 29.814C20.3768 30.7264 20.0726 31.3347 19.7685 32.2472Z" fill="#43BC70"/>
<path d="M65.0882 0H56.8762H0.912452C0.304151 0 0 0.304143 0 0.912444V8.82037C0 9.42867 0.304151 9.73281 0.912452 9.73281H56.8762H64.7841C65.3924 9.73281 65.6965 9.42867 65.6965 8.82037V0.912444C66.0007 0.304143 65.6965 0 65.0882 0ZM2.12905 1.8249H56.2679V7.90791H2.12905V1.8249ZM63.8716 7.90791H57.7886V1.8249H63.8716V7.90791Z" fill="#43BC70"/>
<path d="M65.0898 42.8912H48.0574C47.4491 42.8912 47.1449 43.1953 47.1449 43.8036C47.1449 44.4119 47.4491 44.7161 48.0574 44.7161H64.7856C65.3939 44.7161 65.6981 44.4119 65.6981 43.8036C66.0022 43.1953 65.6981 42.8912 65.0898 42.8912Z" fill="#43BC70"/>
<path d="M41.9721 45.0124C42.5804 45.0124 42.8845 44.7083 42.8845 44.1C42.8845 43.4917 42.2762 43.1875 41.9721 43.1875H30.1102C29.5019 43.1875 29.1978 43.4917 29.1978 44.1C29.1978 44.7083 29.5019 45.0124 30.1102 45.0124H41.9721Z" fill="#43BC70"/>
<path d="M0.912452 52.0178H12.7743C13.3826 52.0178 13.6868 51.7136 13.6868 51.1053C13.6868 50.497 13.3826 50.1928 12.7743 50.1928H0.912452C0.304151 49.8887 0 50.497 0 50.8011C0 51.4095 0.304151 52.0178 0.912452 52.0178Z" fill="#43BC70"/>
<path d="M17.9471 50.7935C17.9471 51.4018 18.2512 51.7059 18.8595 51.7059H34.6754C35.2837 51.7059 35.5878 51.4018 35.5878 50.7935C35.5878 50.1852 35.2837 49.881 34.6754 49.881H19.1637C18.5554 49.881 17.9471 50.4893 17.9471 50.7935Z" fill="#43BC70"/>
<path d="M52.9253 49.881H41.0635C40.4552 49.881 40.151 50.1852 40.151 50.7935C40.151 51.4018 40.7593 51.7059 41.0635 51.7059H52.9253C53.5336 51.7059 53.8378 51.4018 53.8378 50.7935C54.1419 50.4893 53.5336 49.881 52.9253 49.881Z" fill="#43BC70"/>
<path d="M65.0839 49.881H59.0009C58.3926 49.881 58.0884 50.1852 58.0884 50.7935C58.0884 51.4018 58.3926 51.7059 59.0009 51.7059H65.0839C65.6922 51.7059 65.9964 51.4018 65.9964 50.7935C65.9964 50.4893 65.6922 49.881 65.0839 49.881Z" fill="#43BC70"/>
<path d="M0.912452 59.0085H10.9494C11.5577 59.0085 11.8619 58.7044 11.8619 58.0961C11.8619 57.4878 11.5577 57.1836 10.9494 57.1836H0.912452C0.304151 56.8795 0 57.4878 0 57.7919C0 58.4002 0.304151 59.0085 0.912452 59.0085Z" fill="#43BC70"/>
<path d="M27.0699 57.7919C27.0699 57.1836 26.7658 56.8795 26.1575 56.8795H17.0329C16.4246 56.8795 16.1205 57.1836 16.1205 57.7919C16.1205 58.4002 16.7288 58.7044 17.0329 58.7044H25.8533C26.4616 59.0085 27.0699 58.4002 27.0699 57.7919Z" fill="#43BC70"/>
<path d="M31.0244 57.7919C31.0244 58.4002 31.3285 58.7044 31.9368 58.7044H48.9692C49.5775 58.7044 49.8817 58.4002 49.8817 57.7919C49.8817 57.1836 49.5775 56.8795 48.9692 56.8795H31.9368C31.3285 56.8795 31.0244 57.4877 31.0244 57.7919Z" fill="#43BC70"/>
<path d="M65.0877 56.8795H55.0508C54.4425 56.8795 54.1383 57.1836 54.1383 57.7919C54.1383 58.4002 54.4425 58.7044 55.0508 58.7044H65.0877C65.696 58.7044 66.0002 58.4002 66.0002 57.7919C66.0002 57.4877 65.696 56.8795 65.0877 56.8795Z" fill="#43BC70"/>
<path d="M15.8158 63.8755H0.912452C0.304151 63.8755 0 64.4838 0 65.0921C0 65.7004 0.304151 66.0046 0.912452 66.0046H15.8158C16.4241 66.0046 16.7283 65.3963 16.7283 65.0921C17.0324 64.4838 16.4241 63.8755 15.8158 63.8755Z" fill="#43BC70"/>
<path d="M32.8459 63.8755H21.8965C21.2882 63.8755 20.9841 64.1797 20.9841 64.788C20.9841 65.3963 21.2882 65.7004 21.8965 65.7004H32.8459C33.4542 65.7004 33.7584 65.0921 33.7584 64.788C34.0625 64.4838 33.4542 63.8755 32.8459 63.8755Z" fill="#43BC70"/>
<path d="M52.0084 63.8755H38.93C38.3217 63.8755 38.0175 64.1797 38.0175 64.788C38.0175 65.3963 38.3217 65.7004 38.93 65.7004H52.0084C52.6167 65.7004 52.9209 65.0921 52.9209 64.788C52.9209 64.4838 52.6167 63.8755 52.0084 63.8755Z" fill="#43BC70"/>
<path d="M65.0861 63.8755H58.0906C57.4823 63.8755 57.1782 64.1797 57.1782 64.788C57.1782 65.3963 57.4823 65.7004 58.0906 65.7004H65.0861C65.6944 65.7004 65.9985 65.0921 65.9985 64.788C65.9985 64.4838 65.6944 63.8755 65.0861 63.8755Z" fill="#43BC70"/>
</svg>
