<svg width="65" height="65" viewBox="0 0 65 65" fill="none" xmlns="http://www.w3.org/2000/svg">
<path d="M64.1014 0H0.898618C0.299539 0 0 0.299539 0 0.898618V10.7834V64.1014C0 64.7005 0.299539 65 0.898618 65H54.8157H55.1152C55.1152 65 55.4147 65 55.4147 64.7005L64.7005 55.4147C64.7005 55.4147 64.7005 55.1152 65 55.1152C65 55.1152 65 55.1152 65 54.8157V10.7834V0.898618C65 0.299539 64.7005 0 64.1014 0ZM2.09677 2.09677H63.2028V9.88479H2.09677V2.09677ZM53.917 54.8157V62.9032H2.09677V11.682H63.2028V53.6175H54.8157C54.2166 53.917 53.917 54.2166 53.917 54.8157ZM55.7143 61.7051V55.7143H61.4055L55.7143 61.7051Z" fill="#43BC70"/>
<path d="M58.114 5.09397C58.114 5.39351 57.8145 5.69305 57.8145 5.99259C57.8145 6.29213 57.8145 6.59167 58.114 6.59167C58.4135 6.89121 58.4135 6.89121 58.7131 6.89121C59.0126 6.89121 59.3121 6.89121 59.3121 6.59167C59.9112 6.29213 59.9112 6.29213 59.9112 5.99259C59.9112 5.69305 59.9112 5.39351 59.6117 5.39351C59.3121 4.79443 58.7131 4.79443 58.114 5.09397Z" fill="#43BC70"/>
<path d="M53.3176 4.79565C52.7185 4.79565 52.4189 5.09519 52.4189 5.69427C52.4189 6.29335 52.7185 6.59289 53.3176 6.59289C53.9166 6.59289 54.5157 6.59289 54.5157 5.99381C54.5157 5.39473 53.9166 4.79565 53.3176 4.79565Z" fill="#43BC70"/>
<path d="M47.323 5.09397C47.0234 5.39351 47.0234 5.69305 47.0234 5.99259C47.0234 6.29213 47.0234 6.59167 47.323 6.59167C47.6225 6.89121 47.9221 6.89121 47.9221 6.89121C48.2216 6.89121 48.5211 6.89121 48.5211 6.59167C48.8207 6.29213 49.1202 6.29213 49.1202 5.99259C49.1202 5.69305 49.1202 5.39351 48.8207 5.39351C48.2216 4.79443 47.6225 4.79443 47.323 5.09397Z" fill="#43BC70"/>
<path d="M7.78741 30.8476H56.9118C57.5109 30.8476 57.8104 30.5481 57.8104 29.949V17.9675C57.8104 17.3684 57.5109 17.0688 56.9118 17.0688H7.78741C7.18833 17.0688 6.88879 17.3684 6.88879 17.9675V29.949C6.88879 30.2486 7.48787 30.8476 7.78741 30.8476ZM8.98557 18.5665H56.3127V28.7509H8.98557V18.5665Z" fill="#43BC70"/>
<path d="M7.78741 44.3311H14.9764C15.5754 44.3311 15.875 44.0316 15.875 43.4325V35.944C15.875 35.345 15.5754 35.0454 14.9764 35.0454H7.78741C7.18833 35.0454 6.88879 35.345 6.88879 35.944V43.133C6.88879 43.732 7.48787 44.3311 7.78741 44.3311ZM8.98557 37.1422H14.0777V42.2343H8.98557V37.1422Z" fill="#43BC70"/>
<path d="M21.8713 35.0454C21.2722 35.0454 20.9727 35.6445 20.9727 35.944V43.133C20.9727 43.732 21.2722 44.0316 21.8713 44.0316H29.0602C29.6593 44.3311 29.9588 43.732 29.9588 43.133V35.944C29.9588 35.345 29.6593 35.0454 29.0602 35.0454H21.8713ZM28.1616 42.2343H22.7699V37.1422H27.8621V42.2343H28.1616Z" fill="#43BC70"/>
<path d="M35.9424 35.0454C35.3434 35.0454 35.0438 35.345 35.0438 35.944V43.133C35.0438 43.732 35.3434 44.0316 35.9424 44.0316H43.1314C43.7305 44.0316 44.03 43.732 44.03 43.133V35.944C44.03 35.345 43.7305 35.0454 43.1314 35.0454H35.9424ZM42.2328 42.2343H36.8411V37.1422H41.9332V42.2343H42.2328Z" fill="#43BC70"/>
<path d="M57.2152 35.0454H50.0263C49.4272 35.0454 49.1277 35.345 49.1277 35.944V43.133C49.1277 43.732 49.4272 44.0316 50.0263 44.0316H57.2152C57.8143 44.0316 58.1139 43.732 58.1139 43.133V35.944C58.1139 35.6445 57.8143 35.0454 57.2152 35.0454ZM56.3166 42.2343H50.9249V37.1422H56.0171V42.2343H56.3166Z" fill="#43BC70"/>
<path d="M58.11 49.7216C58.11 49.1225 57.8105 48.823 57.2114 48.823H7.78741C7.18833 48.823 6.88879 49.1225 6.88879 49.7216C6.88879 50.3207 7.18833 50.6202 7.78741 50.6202H56.9118C57.8105 50.6202 58.11 50.3207 58.11 49.7216Z" fill="#43BC70"/>
<path d="M50.0292 53.9138H8.09369C7.49461 53.9138 7.19507 54.2134 7.19507 54.8124C7.19507 55.4115 7.49461 55.7111 8.09369 55.7111H50.0292C50.6282 55.7111 50.9278 55.4115 50.9278 54.8124C50.9278 54.2134 50.6282 53.9138 50.0292 53.9138Z" fill="#43BC70"/>
</svg>
