<svg width="43" height="26" viewBox="0 0 43 26" fill="none" xmlns="http://www.w3.org/2000/svg">
<path d="M40.9393 6.7342C41.9156 5.75789 41.9156 4.17497 40.9393 3.19866L39.8013 2.06065C38.825 1.08434 37.2421 1.08433 36.2658 2.06063L33.9357 4.39066C33.8253 4.50105 33.6984 4.59353 33.5595 4.66476L18.8562 12.2038C18.2767 12.5009 17.5717 12.3902 17.1112 11.9297L14.6669 9.48534C13.6906 8.50903 12.1077 8.50903 11.1313 9.48534L9.87278 10.7439C8.95735 11.6593 8.89222 13.1222 9.72268 14.1153L12.5207 17.4616C12.6172 17.577 12.724 17.6835 12.8396 17.7797L17.4504 21.6159L19.9862 24.1518C20.9625 25.1281 22.5454 25.1281 23.5218 24.1518L40.9393 6.7342Z" fill="#72B5E9" stroke="#1A1D28"/>
<path d="M33.0066 6.7342C33.983 5.75789 33.983 4.17497 33.0066 3.19866L31.8686 2.06066C30.8923 1.08435 29.3094 1.08435 28.3331 2.06065L14.882 15.5117C14.2962 16.0975 13.3464 16.0975 12.7607 15.5117L6.73426 9.48533C5.75796 8.50902 4.17506 8.50902 3.19875 9.48531L2.06069 10.6233C1.08436 11.5996 1.08436 13.1826 2.06067 14.1589L12.0535 24.1518C13.0299 25.1281 14.6128 25.1281 15.5891 24.1518L33.0066 6.7342Z" fill="#72B5E9" stroke="#1A1D28"/>
</svg>
