<svg width="63" height="58" viewBox="0 0 63 58" fill="none" xmlns="http://www.w3.org/2000/svg">
<path d="M56.3223 27.2942C55.7416 27.0038 55.1609 27.0038 54.8706 27.5845C54.5802 28.1652 54.5802 28.7459 55.1609 29.0362C58.9354 31.6493 60.9677 35.4237 60.9677 39.1982C60.9677 42.6822 59.2257 46.1663 55.7416 48.7794C55.7416 48.7794 55.4513 49.0698 55.4513 49.3601L55.1609 54.8766L49.0638 51.9732C48.7734 51.9732 48.7734 51.9732 48.4831 51.9732C47.0314 52.2635 45.2893 52.5539 43.8376 52.5539C37.4501 52.5539 31.6433 49.9408 28.7399 45.2953C28.4495 45.005 27.8689 44.7146 27.2882 45.005C26.7075 45.2953 26.7075 45.876 26.9978 46.4567C30.4819 51.3925 36.8694 54.5863 43.8376 54.5863C45.5797 54.5863 47.0314 54.5862 48.4831 54.0056L55.4513 57.1993H55.7416C56.0319 57.1993 56.0319 57.1993 56.3223 57.1993C56.6126 56.909 56.903 56.6186 56.903 56.3283L57.4836 49.9408C60.9677 47.0374 63.0001 43.2629 63.0001 39.1982C63.0001 34.5527 60.6774 30.1976 56.3223 27.2942Z" fill="#43BC70"/>
<path d="M45.291 38.9001C45.291 39.7712 44.7104 40.3518 43.8393 40.3518C43.549 40.3518 43.549 40.3518 43.2587 40.3518C42.678 40.0615 42.0973 40.3519 42.0973 40.9325C41.807 41.5132 42.0973 42.0939 42.678 42.0939C43.2587 42.3842 43.549 42.3842 44.1297 42.3842C45.8717 42.3842 47.6138 40.9325 47.6138 38.9001C47.6138 38.3194 47.3234 38.0291 46.7428 38.0291C45.8717 37.7388 45.291 38.3194 45.291 38.9001Z" fill="#43BC70"/>
<path d="M50.8083 38.9133C50.8083 40.6554 52.2601 42.3975 54.2924 42.3975C56.0345 42.3975 57.7765 40.9457 57.7765 38.9133C57.7765 37.1713 56.3248 35.4293 54.2924 35.4293C52.5504 35.4293 50.8083 36.881 50.8083 38.9133ZM54.2924 37.4617C55.1635 37.4617 55.7441 38.0423 55.7441 38.9133C55.7441 39.7844 55.1635 40.3651 54.2924 40.3651C53.4214 40.3651 52.8407 39.7844 52.8407 38.9133C52.8407 38.0423 53.4214 37.4617 54.2924 37.4617Z" fill="#43BC70"/>
<path d="M53.4227 21.4852C53.4227 9.58125 41.5188 0 26.7114 0C11.904 0 0 9.58125 0 21.4852C0 27.2921 2.90341 32.5182 7.83921 36.583L8.41989 45.8739C8.41989 46.1642 8.71023 46.4546 9.00057 46.7449C9.00057 46.7449 9.29091 46.7449 9.58125 46.7449H9.87159L20.0335 42.0994C22.3563 42.6801 24.679 42.6801 26.7114 42.6801C41.5188 42.6801 53.4227 33.0989 53.4227 21.4852ZM26.7114 40.9381C24.3886 40.9381 22.0659 40.6477 20.0335 40.3574C19.7432 40.3574 19.7432 40.3574 19.4528 40.3574L10.4523 44.4222L9.87159 36.0023C9.87159 35.7119 9.58125 35.4216 9.58125 35.4216C4.64546 31.6472 2.03239 26.7114 2.03239 21.4852C2.03239 10.7426 13.0653 2.03238 27.0017 2.03238C40.6477 2.03238 51.971 10.7426 51.971 21.4852C51.6807 32.2279 40.3574 40.9381 26.7114 40.9381Z" fill="#43BC70"/>
<path d="M26.7106 18.287C24.6782 18.287 22.9362 20.0291 22.9362 22.0615C22.9362 24.0939 24.6782 25.8359 26.7106 25.8359C28.743 25.8359 30.485 24.0939 30.485 22.0615C30.485 20.0291 29.0333 18.287 26.7106 18.287ZM26.7106 23.8035C25.5492 23.8035 24.6782 22.9325 24.6782 21.7712C24.6782 20.6098 25.5492 19.7388 26.7106 19.7388C27.872 19.7388 28.743 20.6098 28.743 21.7712C28.743 22.9325 27.872 23.8035 26.7106 23.8035Z" fill="#43BC70"/>
<path d="M14.231 18.287C12.1986 18.287 10.4565 20.0291 10.4565 22.0615C10.4565 24.0939 12.1986 25.8359 14.231 25.8359C16.2634 25.8359 18.0054 24.0939 18.0054 22.0615C18.2957 20.0291 16.5537 18.287 14.231 18.287ZM14.231 23.8035C13.0696 23.8035 12.1986 22.9325 12.1986 21.7712C12.1986 20.6098 13.0696 19.7388 14.231 19.7388C15.3923 19.7388 16.2634 20.6098 16.2634 21.7712C16.2634 22.9325 15.3923 23.8035 14.231 23.8035Z" fill="#43BC70"/>
<path d="M39.1941 18.287C37.1617 18.287 35.4197 20.0291 35.4197 22.0615C35.4197 24.0939 37.1617 25.8359 39.1941 25.8359C41.2265 25.8359 42.9685 24.0939 42.9685 22.0615C42.9685 20.0291 41.2265 18.287 39.1941 18.287ZM39.1941 23.8035C38.0327 23.8035 37.1617 22.9325 37.1617 21.7712C37.1617 20.6098 38.0327 19.7388 39.1941 19.7388C40.3555 19.7388 41.2265 20.6098 41.2265 21.7712C41.2265 22.9325 40.3555 23.8035 39.1941 23.8035Z" fill="#43BC70"/>
</svg>
