<svg width="65" height="65" viewBox="0 0 65 65" fill="none" xmlns="http://www.w3.org/2000/svg">
<path d="M59.0101 46.9977L43.1446 31.1322L50.6283 23.6485C54.5198 24.5466 58.4114 23.3492 61.4049 20.3557C64.6977 17.0629 65.5957 12.2733 64.099 7.78305C64.099 7.48371 63.7997 7.18436 63.5003 7.18436C63.201 7.18436 62.9016 7.18436 62.6023 7.48371L54.8192 15.2668C52.4244 14.3687 50.6283 12.5726 49.7303 10.1778L57.5133 2.39479C57.8127 2.09544 57.8127 1.79608 57.8127 1.49673C57.8127 1.19739 57.5133 0.898038 57.214 0.898038C52.7238 -0.898054 47.9342 0.299338 44.6413 3.29282C41.9472 6.28631 40.7498 10.1778 41.3485 14.0694L33.8648 21.8524L17.7 5.38827H17.4006L1.2358 0C0.936454 0 0.637114 -7.41582e-06 0.337765 0.299341C0.0384167 0.59869 0.0384098 0.898044 0.0384098 1.19739L5.42669 17.0629C5.42669 17.0629 5.42669 17.0629 5.42669 17.3622L21.8909 33.527L14.4071 41.3101C10.5156 40.412 6.32474 41.6094 3.6306 44.6029C0.337769 47.8958 -0.859636 52.6853 0.637106 56.8762C0.637106 57.1756 0.936454 57.4749 1.2358 57.4749C1.53515 57.4749 1.83451 57.4749 2.13385 57.1756L9.91691 49.3925C12.3117 50.2905 14.4071 52.0866 15.0058 54.4814L7.52212 62.5638C7.52212 62.8632 7.22278 63.1625 7.22278 63.4619C7.22278 63.7612 7.52213 64.0606 7.82148 64.0606C9.31822 64.6593 10.5156 64.9586 12.0124 64.9586C15.0058 64.9586 18.2987 63.7612 20.3941 61.3664C23.3876 58.6723 24.585 54.4814 23.6869 50.5899L31.1707 43.1062L47.0361 58.9717L52.7238 64.6593C53.0231 64.9586 53.0231 64.9586 53.3225 64.9586H53.6218C59.3094 63.1625 63.201 59.271 64.997 53.5834C64.997 53.284 64.997 52.9847 64.6977 52.6853L59.0101 46.9977ZM56.9146 48.4945C56.9146 48.7938 56.6153 49.0932 56.6153 49.0932C56.6153 49.6919 56.3159 49.9912 56.3159 50.2905C56.3159 50.5899 56.0166 50.5899 56.0166 50.8892C55.7172 51.1886 55.4179 51.4879 55.1185 51.7873C55.1185 51.7873 54.8192 52.0866 54.8192 52.386C54.8192 52.6853 54.5198 52.6853 54.2205 52.9847L14.1078 12.5726C14.4071 12.5726 14.7065 12.2733 14.7065 11.9739C14.7065 11.9739 15.0058 11.6746 15.0058 11.3752C15.3052 11.3752 15.6045 10.7765 15.9039 10.4772C15.9039 10.1778 16.2032 10.1778 16.2032 9.8785C16.5026 9.57915 16.5026 9.2798 16.8019 8.98045C16.8019 8.6811 17.1013 8.6811 17.1013 8.38175V8.08241L57.214 47.8958C57.214 48.1951 57.214 48.4945 56.9146 48.4945ZM10.5156 13.4707C10.2163 13.77 9.91692 14.0694 9.61757 14.0694C9.31822 14.0694 9.31822 14.3687 9.01887 14.3687C8.71952 14.6681 8.42017 14.6681 8.12082 14.9674C7.82147 14.9674 7.82147 15.2668 7.52212 15.2668C7.22277 15.2668 7.22277 15.2668 6.92343 15.5661L5.12734 10.1778C7.52212 8.98045 9.31822 7.18435 10.2163 5.08891L15.6045 6.88502C15.6045 6.88502 15.6045 7.18436 15.3052 7.48371C15.3052 7.78306 15.0058 7.78306 15.0058 8.08241C15.0058 8.38176 14.7065 8.6811 14.4071 8.98045C14.4071 9.2798 14.1078 9.2798 14.1078 9.57914C14.1078 9.87849 13.8084 10.1778 13.5091 10.4772L13.2097 10.7765C12.9104 11.3752 12.6111 11.6746 12.3117 11.9739C11.713 12.5726 11.4137 12.872 11.1143 13.1713C10.815 13.1713 10.815 13.4707 10.5156 13.4707ZM43.1446 15.2668C43.4439 14.9674 43.444 14.6681 43.444 14.3687C42.5459 11.0759 43.4439 7.4837 46.1381 5.08891C48.5329 2.69412 51.8257 1.79609 55.1185 2.39479L47.9342 8.98045C47.6348 9.2798 47.6348 9.57914 47.6348 10.1778C48.5329 13.77 51.227 16.4642 55.1185 17.3622C55.4179 17.3622 55.7172 17.3622 56.0166 17.0629L62.9016 9.8785C63.5003 13.1713 62.6023 16.4642 60.2075 18.8589C57.8127 21.2537 54.2205 22.4511 50.6283 21.5531C50.329 21.5531 50.0296 21.5531 49.7303 21.8524L41.9472 29.9349L35.0622 23.0498L43.1446 15.2668ZM8.42017 4.49022C7.52213 5.98696 6.32473 7.48371 4.52864 8.08241L2.73255 2.39479L8.42017 4.49022ZM8.42017 17.0629C8.71952 17.0629 8.71952 16.7635 9.01887 16.7635C9.31822 16.4642 9.61757 16.1648 10.2163 16.1648C10.5156 16.1648 10.5156 15.8655 10.815 15.8655C11.1143 15.5661 11.4137 15.2668 11.713 14.9674C12.0124 14.9674 12.0124 14.6681 12.3117 14.6681C12.3117 14.3687 12.6111 14.3687 12.9104 14.0694L53.0231 54.1821C52.7237 54.1821 52.7237 54.4814 52.4244 54.7808C52.1251 54.7808 52.1251 55.0801 51.8257 55.0801C51.8257 55.3795 51.5264 55.3795 50.9277 55.6788C50.6283 55.6788 50.6283 55.9782 50.329 55.9782C50.0296 55.9782 49.7303 56.2775 49.4309 56.5769C49.1316 56.5769 48.8322 56.8762 48.8322 56.8762C48.8322 56.8762 48.2335 56.8762 48.2335 57.1756L8.42017 17.0629C8.12083 17.0629 8.42017 17.0629 8.42017 17.0629ZM21.8909 49.6919C21.5915 49.9912 21.5915 50.2905 21.5915 50.5899C22.4896 53.8827 21.5915 57.4749 18.8974 59.8697C16.8019 62.2645 13.5091 63.4619 10.2163 62.8632L17.1013 55.9782C17.4006 55.6788 17.4006 55.3795 17.4006 55.0801C16.5026 51.1886 13.8084 48.4944 10.2163 47.5964C9.91691 47.5964 9.61756 47.5964 9.31821 47.8958L2.13385 54.7808C1.53516 51.4879 2.73256 48.1951 4.828 45.8003C7.22278 43.4055 10.815 42.2081 14.1078 43.1062C14.4071 43.1062 14.7065 43.1062 15.0058 42.8068L23.0882 34.7244L29.6739 41.3101L21.8909 49.6919ZM53.9212 62.8632L49.7303 58.6723H50.0296C50.329 58.6723 50.329 58.373 50.6283 58.373C50.9277 58.0736 51.227 57.7743 51.5264 57.4749C51.8257 57.4749 51.8257 57.1756 52.1251 57.1756C52.4244 56.8762 52.7238 56.5769 53.3225 56.2775C53.6218 56.2775 53.6218 55.9782 53.9212 55.9782C54.8192 55.3795 55.7172 54.4814 56.3159 53.5834C56.3159 53.284 56.6153 53.284 56.6153 52.9847C56.9146 52.6853 57.214 52.386 57.5133 52.0866C57.5133 51.7873 57.8127 51.7873 57.8127 51.4879C58.112 51.1886 58.112 50.5899 58.4114 50.2905C58.4114 49.9912 58.7107 49.9912 58.7107 49.6919V49.3925L62.9016 53.5834C61.4049 58.0736 58.112 61.0671 53.9212 62.8632Z" fill="#43BC70"/>
<path d="M0.934429 25.448H6.62205C7.22075 25.448 7.52009 25.1486 7.52009 24.5499C7.52009 23.9512 7.22075 23.6519 6.62205 23.6519H0.934429C0.335732 23.6519 0.036377 23.9512 0.036377 24.5499C0.036377 24.8493 0.63508 25.448 0.934429 25.448Z" fill="#43BC70"/>
<path d="M0.934429 31.133H11.711C12.3097 31.133 12.609 30.8336 12.609 30.2349C12.609 29.6362 12.0103 29.3369 11.711 29.3369H0.934429C0.335732 29.3369 0.036377 29.6362 0.036377 30.2349C0.036377 30.8336 0.63508 31.133 0.934429 31.133Z" fill="#43BC70"/>
<path d="M9.01965 36.2255C9.01965 36.8242 9.31899 37.1236 9.91769 37.1236H14.7073C15.306 37.1236 15.6053 36.8242 15.6053 36.2255C15.6053 35.6268 15.0066 35.3275 14.7073 35.3275H9.91769C9.31899 35.3275 9.01965 35.6268 9.01965 36.2255Z" fill="#43BC70"/>
<path d="M0.934429 37.1236H4.52661C5.12531 37.1236 5.42466 36.8242 5.42466 36.2255C5.42466 35.6268 5.12531 35.3275 4.52661 35.3275H0.934429C0.335732 35.3275 0.036377 35.6268 0.036377 36.2255C0.036377 36.8242 0.63508 37.1236 0.934429 37.1236Z" fill="#43BC70"/>
<path d="M29.6711 11.6756C29.0724 11.6756 28.7731 11.975 28.7731 12.5737C28.7731 13.1724 29.0724 13.4717 29.6711 13.4717H36.2568C36.8555 13.4717 37.1548 13.1724 37.1548 12.5737C37.1548 11.975 36.8555 11.6756 36.2568 11.6756H29.6711Z" fill="#43BC70"/>
<path d="M39.2533 6.88824C39.2533 6.28954 38.954 5.99018 38.3553 5.99018H23.6872C23.0885 5.99018 22.7892 6.28954 22.7892 6.88824C22.7892 7.48693 23.0885 7.78627 23.6872 7.78627H38.3553C38.954 7.78627 39.2533 7.48693 39.2533 6.88824Z" fill="#43BC70"/>
<path d="M32.6664 1.79609H41.3475C41.9462 1.79609 42.2455 1.49673 42.2455 0.898038C42.2455 0.299341 41.9462 0 41.3475 0H32.6664C32.0677 0 31.7683 0.299341 31.7683 0.898038C31.7683 1.49673 32.0677 1.79609 32.6664 1.79609Z" fill="#43BC70"/>
<path d="M16.8003 1.79609H27.5768C28.1755 1.79609 28.4749 1.49673 28.4749 0.898038C28.4749 0.299341 28.1755 0 27.5768 0H16.8003C16.2016 0 15.9022 0.299341 15.9022 0.898038C15.9022 1.49673 16.5009 1.79609 16.8003 1.79609Z" fill="#43BC70"/>
<path d="M35.9606 51.1907H27.2795C26.6808 51.1907 26.3815 51.49 26.3815 52.0887C26.3815 52.6874 26.6808 52.9868 27.2795 52.9868H35.9606C36.5593 52.9868 36.8587 52.6874 36.8587 52.0887C36.8587 51.49 36.5593 51.1907 35.9606 51.1907Z" fill="#43BC70"/>
<path d="M36.2563 58.0793C36.2563 58.678 36.5557 58.9774 37.1544 58.9774H41.0459C41.6446 58.9774 41.944 58.678 41.944 58.0793C41.944 57.4806 41.6446 57.1813 41.0459 57.1813H37.1544C36.5557 57.1813 36.2563 57.4806 36.2563 58.0793Z" fill="#43BC70"/>
<path d="M32.0683 57.1813H26.3807C25.782 57.1813 25.4827 57.4806 25.4827 58.0793C25.4827 58.678 25.782 58.9774 26.3807 58.9774H32.0683C32.667 58.9774 32.9664 58.678 32.9664 58.0793C32.9664 57.4806 32.667 57.1813 32.0683 57.1813Z" fill="#43BC70"/>
<path d="M46.7383 62.8671H34.1656C33.5669 62.8671 33.2676 63.4658 33.2676 64.0645C33.2676 64.6632 33.5669 64.9626 34.1656 64.9626H46.7383C47.337 64.9626 47.6363 64.3639 47.6363 64.0645C47.9357 63.4658 47.337 62.8671 46.7383 62.8671Z" fill="#43BC70"/>
<path d="M29.0732 62.8671H23.3856C22.7869 62.8671 22.4875 63.1665 22.4875 63.7652C22.4875 64.3639 22.7869 64.6632 23.3856 64.6632H29.0732C29.6719 64.6632 29.9713 64.0645 29.9713 63.7652C29.9713 63.4658 29.6719 62.8671 29.0732 62.8671Z" fill="#43BC70"/>
<path d="M64.1019 39.2157H58.4143C57.8156 39.2157 57.5162 39.515 57.5162 40.1137C57.5162 40.7124 58.1149 41.0118 58.4143 41.0118H64.1019C64.7006 41.0118 64.9999 40.7124 64.9999 40.1137C64.9999 39.515 64.7006 39.2157 64.1019 39.2157Z" fill="#43BC70"/>
<path d="M64.094 33.2251H51.5213C50.9226 33.2251 50.6233 33.5244 50.6233 34.1231C50.6233 34.7218 50.9226 35.0212 51.5213 35.0212H64.094C64.6927 35.0212 64.992 34.7218 64.992 34.1231C64.992 33.8238 64.6927 33.2251 64.094 33.2251Z" fill="#43BC70"/>
<path d="M51.5213 27.2472C50.9226 27.2472 50.6233 27.5466 50.6233 28.1453C50.6233 28.744 50.9226 29.0433 51.5213 29.0433H56.3109C56.9096 29.0433 57.209 28.744 57.209 28.1453C57.209 27.5466 56.9096 27.2472 56.3109 27.2472H51.5213Z" fill="#43BC70"/>
<path d="M64.0973 27.2472H61.4032C60.8045 27.2472 60.5051 27.5466 60.5051 28.1453C60.5051 28.744 60.8045 29.0433 61.4032 29.0433H64.0973C64.696 29.0433 64.9954 28.744 64.9954 28.1453C64.9954 27.8459 64.696 27.2472 64.0973 27.2472Z" fill="#43BC70"/>
</svg>
