<svg width="156" height="150" viewBox="0 0 156 150" fill="none" xmlns="http://www.w3.org/2000/svg">
<g clip-path="url(#clip0)">
<path d="M1.26829 37.8049H0V0H39.3171V1.21951H1.26829V37.8049Z" fill="#43BC70"/>
<g clip-path="url(#clip1)" filter="url(#filter0_f)">
<path d="M19.8255 58.7954C42.6468 58.7954 61.1471 41.0066 61.1471 19.0631C61.1471 -2.88044 42.6468 -20.6692 19.8255 -20.6692C-2.99576 -20.6692 -21.4961 -2.88044 -21.4961 19.0631C-21.4961 41.0066 -2.99576 58.7954 19.8255 58.7954Z" fill="url(#paint0_radial)" fill-opacity="0.3" style="mix-blend-mode:screen"/>
</g>
<path d="M123.149 113.909H32.7551C32.3369 113.909 32 113.572 32 113.153V37.7556C32 37.3371 32.3369 37 32.7551 37H123.149C123.567 37 123.904 37.3371 123.904 37.7556V113.165C123.904 113.572 123.567 113.909 123.149 113.909ZM33.5102 112.397H122.394V38.5112H33.5102V112.397Z" fill="#43BC70"/>
<path d="M123.149 113.909H83.0926C82.8254 113.909 82.5698 113.757 82.4304 113.525L82.1284 112.99C81.9426 112.665 82.0238 112.258 82.3143 112.025L88.1229 107.387C87.7279 106.259 87.4259 105.12 87.2168 103.993L79.8631 102.888C79.4913 102.83 79.2241 102.516 79.2241 102.144V98.5872C79.2241 98.2152 79.5029 97.8898 79.8631 97.8433L87.2168 96.7389C87.4259 95.6113 87.7279 94.4721 88.1229 93.3445L82.3143 88.7063C82.0238 88.4738 81.9426 88.0669 82.1284 87.7414L84.1846 84.1843C84.3705 83.8588 84.7655 83.7193 85.114 83.8588L92.0379 86.579C92.7814 85.7071 93.6178 84.8702 94.5124 84.1029L91.7823 77.1746C91.6429 76.8259 91.7823 76.4307 92.1076 76.2447L95.6624 74.1987C95.9877 74.0127 96.3944 74.0941 96.6267 74.3847L101.262 80.2087C102.331 79.8251 103.469 79.5112 104.643 79.302L105.758 71.9436C105.816 71.5716 106.13 71.3042 106.501 71.3042H110.602C110.974 71.3042 111.288 71.5832 111.346 71.9436L112.449 79.302C113.623 79.5228 114.761 79.8251 115.83 80.2087L120.454 74.3847C120.686 74.0941 121.104 74.0127 121.418 74.1987L123.509 75.4077C123.741 75.5472 123.892 75.7913 123.892 76.0587V80.6388C123.892 80.7318 123.869 80.8248 123.834 80.9178L122.568 84.1146C122.975 84.4633 123.323 84.7888 123.66 85.1026C123.811 85.2421 123.892 85.4398 123.892 85.649V113.153C123.904 113.571 123.567 113.909 123.149 113.909ZM84.2776 112.397H122.394V85.9745C122.045 85.649 121.65 85.3003 121.209 84.9283C120.953 84.719 120.872 84.3703 120.988 84.0681L122.394 80.4993V76.5004L121.244 75.8378L116.678 81.5804C116.469 81.8361 116.12 81.9291 115.807 81.8129C114.506 81.3014 113.112 80.9294 111.659 80.6969C111.334 80.6504 111.079 80.383 111.032 80.0692L109.94 72.8154H107.14L106.048 80.0692C106.002 80.3947 105.746 80.6504 105.421 80.6969C103.969 80.9294 102.575 81.3014 101.285 81.8129C100.983 81.9291 100.623 81.8361 100.414 81.5804L95.8484 75.8378L93.4203 77.2328L96.1039 84.0564C96.2201 84.3587 96.1388 84.7074 95.8832 84.9167C94.7447 85.835 93.7224 86.858 92.8511 87.9507C92.642 88.2064 92.2935 88.2994 91.9914 88.1832L85.1721 85.4979L83.7664 87.9274L89.4937 92.4959C89.7493 92.7052 89.8422 93.0423 89.7261 93.3561C89.2033 94.7278 88.8315 96.1228 88.6224 97.5061C88.5759 97.8316 88.3204 98.0874 87.9835 98.1339L80.7343 99.215V101.47L87.9835 102.551C88.3088 102.598 88.5643 102.853 88.6224 103.179C88.8315 104.562 89.2033 105.957 89.7261 107.329C89.8422 107.631 89.7493 107.98 89.4937 108.189L84.2776 112.397Z" fill="#43BC70"/>
<path d="M123.149 53.7861H32.7551C32.3369 53.7861 32 53.449 32 53.0305C32 52.612 32.3369 52.2749 32.7551 52.2749H123.149C123.567 52.2749 123.904 52.612 123.904 53.0305C123.904 53.449 123.567 53.7861 123.149 53.7861Z" fill="#43BC70"/>
<path d="M41.8747 48.555C40.0392 48.555 38.5522 47.067 38.5522 45.2303C38.5522 43.3936 40.0392 41.894 41.8747 41.894C43.7102 41.894 45.2088 43.3936 45.2088 45.2303C45.2088 47.067 43.7218 48.555 41.8747 48.555ZM41.8747 43.4052C40.8756 43.4052 40.0624 44.219 40.0624 45.2303C40.0624 46.23 40.8756 47.0438 41.8747 47.0438C42.8738 47.0438 43.6986 46.23 43.6986 45.2303C43.6986 44.2306 42.8854 43.4052 41.8747 43.4052Z" fill="#43BC70"/>
<path d="M53.0388 48.555C51.2033 48.555 49.7163 47.067 49.7163 45.2303C49.7163 43.3936 51.2033 41.894 53.0388 41.894C54.8743 41.894 56.3613 43.3936 56.3613 45.2303C56.3613 47.067 54.8627 48.555 53.0388 48.555ZM53.0388 43.4052C52.0165 43.4052 51.2265 44.2073 51.2265 45.2303C51.2265 46.23 52.0397 47.0438 53.0388 47.0438C54.0379 47.0438 54.8511 46.23 54.8511 45.2303C54.8511 44.2306 54.0379 43.4052 53.0388 43.4052Z" fill="#43BC70"/>
<path d="M123.149 45.9858H72.9275C72.5093 45.9858 72.1724 45.6487 72.1724 45.2302C72.1724 44.8117 72.5093 44.4746 72.9275 44.4746H123.149C123.567 44.4746 123.904 44.8117 123.904 45.2302C123.904 45.6487 123.567 45.9858 123.149 45.9858Z" fill="#43BC70"/>
<path d="M112.275 65.6896H43.6289C43.2106 65.6896 42.8737 65.3525 42.8737 64.934V60.2261C42.8737 59.8076 43.2106 59.4705 43.6289 59.4705H112.275C112.693 59.4705 113.03 59.8076 113.03 60.2261V64.934C113.03 65.3525 112.693 65.6896 112.275 65.6896ZM44.3839 64.1784H111.52V60.97H44.3839V64.1784Z" fill="#43BC70"/>
<path d="M83.0229 75.5473H43.3385C42.9202 75.5473 42.5833 75.2102 42.5833 74.7917C42.5833 74.3732 42.9202 74.0361 43.3385 74.0361H83.0229C83.4411 74.0361 83.778 74.3732 83.778 74.7917C83.778 75.2102 83.4295 75.5473 83.0229 75.5473Z" fill="#43BC70"/>
<path d="M57.7787 80.3017H43.3385C42.9202 80.3017 42.5833 79.9646 42.5833 79.5461C42.5833 79.1276 42.9202 78.7905 43.3385 78.7905H57.7787C58.1969 78.7905 58.5338 79.1276 58.5338 79.5461C58.5338 79.9646 58.1853 80.3017 57.7787 80.3017Z" fill="#43BC70"/>
<path d="M75.1464 85.0564H43.3385C42.9202 85.0564 42.5833 84.7193 42.5833 84.3008C42.5833 83.8823 42.9202 83.5452 43.3385 83.5452H75.1464C75.5646 83.5452 75.9015 83.8823 75.9015 84.3008C75.9015 84.7193 75.5646 85.0564 75.1464 85.0564Z" fill="#43BC70"/>
<path d="M66.6194 89.8108H43.3268C42.9086 89.8108 42.5717 89.4736 42.5717 89.0552C42.5717 88.6367 42.9086 88.2996 43.3268 88.2996H66.6194C67.0376 88.2996 67.3746 88.6367 67.3746 89.0552C67.3746 89.4736 67.0376 89.8108 66.6194 89.8108Z" fill="#43BC70"/>
<path d="M74.9721 94.5652H43.3268C42.9086 94.5652 42.5717 94.228 42.5717 93.8096C42.5717 93.3911 42.9086 93.054 43.3268 93.054H74.9721C75.3904 93.054 75.7273 93.3911 75.7273 93.8096C75.7273 94.2164 75.3904 94.5652 74.9721 94.5652Z" fill="#43BC70"/>
<path d="M65.8874 99.3198H43.3385C42.9202 99.3198 42.5833 98.9827 42.5833 98.5642C42.5833 98.1457 42.9202 97.8086 43.3385 97.8086H65.8874C66.3057 97.8086 66.6426 98.1457 66.6426 98.5642C66.6426 98.9827 66.294 99.3198 65.8874 99.3198Z" fill="#43BC70"/>
</g>
<defs>
<filter id="filter0_f" x="-71.4961" y="-70.6692" width="182.637" height="179.459" filterUnits="userSpaceOnUse" color-interpolation-filters="sRGB">
<feFlood flood-opacity="0" result="BackgroundImageFix"/>
<feBlend mode="normal" in="SourceGraphic" in2="BackgroundImageFix" result="shape"/>
<feGaussianBlur stdDeviation="25" result="effect1_foregroundBlur"/>
</filter>
<radialGradient id="paint0_radial" cx="0" cy="0" r="1" gradientUnits="userSpaceOnUse" gradientTransform="translate(20.5338 19.5275) scale(37.7939 36.3403)">
<stop stop-color="#43BC70" stop-opacity="0.1"/>
<stop offset="0.0852" stop-color="#43BC71" stop-opacity="0.75"/>
<stop offset="0.171875" stop-color="#43BC70" stop-opacity="0.55"/>
<stop offset="0.244792" stop-color="#43BC70" stop-opacity="0.4"/>
<stop offset="0.411" stop-color="#43BC70"/>
<stop offset="0.6433" stop-color="#43BC70" stop-opacity="0.4"/>
<stop offset="0.7581" stop-color="#43BC70" stop-opacity="0.4"/>
</radialGradient>
<clipPath id="clip0">
<rect width="156" height="150" fill="white"/>
</clipPath>
<clipPath id="clip1">
<rect width="82.637" height="79.4587" fill="white" transform="translate(-21.4961 -20.6692)"/>
</clipPath>
</defs>
</svg>
