<svg width="190" height="33" viewBox="0 0 190 33" fill="none" xmlns="http://www.w3.org/2000/svg">
<path d="M147.193 22.6274C148.66 22.6274 149.782 23.7651 149.782 25.1978C149.782 26.6726 148.66 27.7682 147.193 27.7682C145.683 27.7682 144.561 26.6726 144.561 25.1978C144.517 23.7651 145.683 22.6274 147.193 22.6274Z" fill="#43BC70"/>
<path d="M174.681 27.4312H170.883V19.4673C170.883 17.824 169.891 16.8127 168.381 16.8127C166.87 16.8127 165.792 17.8661 165.792 19.3831V27.3891H161.994V19.4673C161.994 17.824 161.002 16.8127 159.491 16.8127C157.938 16.8127 156.902 17.824 156.902 19.4673V27.3891H153.105V13.7788H156.6V15.0008C157.549 14.0316 158.93 13.4839 160.57 13.4839C162.426 13.4839 163.806 14.1581 164.713 15.4222C165.835 14.2002 167.431 13.4839 169.373 13.4839C172.653 13.4839 174.638 15.675 174.638 18.9617V27.4312H174.681ZM179.989 21.8691C180.42 23.5968 181.887 24.5659 183.916 24.5659C185.296 24.5659 186.591 24.1024 187.799 23.1754L189.396 25.7036C187.713 27.052 185.857 27.7262 183.786 27.7262C179.471 27.8105 176.062 24.5238 176.148 20.605C176.062 16.6441 179.428 13.3996 183.441 13.4839C187.325 13.4839 190 16.2649 190 19.8044C190 20.4786 189.914 21.1528 189.741 21.827H179.989V21.8691ZM186.332 19.2145C186.289 17.529 184.994 16.4756 183.311 16.4756C181.715 16.4756 180.42 17.5712 179.989 19.2145H186.332ZM8.71678 27.347L8.80309 27.4312L11.3059 20.8115L9.92505 19.5137L7.72428 17.3352C7.37906 16.9981 7.37906 16.4967 7.72428 16.1638L13.4204 10.6354C13.7656 10.2983 13.7656 9.79687 13.4204 9.46399L9.9682 6.11409C9.62298 5.77699 9.10515 5.77699 8.75994 6.11409L1.76925 12.9024C0.690439 13.8673 0 15.2494 0 16.7579C0 18.1822 0.604134 19.48 1.55349 20.4028L8.71678 27.347ZM15.8844 32.6015L11.0815 30.5452C10.663 30.3513 10.4299 29.8752 10.6327 29.4201L23.3066 1.20512C23.5051 0.796388 23.9927 0.568847 24.4588 0.766891L29.2616 2.82318C29.6802 3.01701 29.9132 3.49316 29.7104 3.94824L17.0366 32.1632C16.8381 32.6141 16.3073 32.7953 15.8844 32.6015ZM38.8803 12.9782L31.7602 5.98346L31.6307 5.85705L29.1279 12.4726L30.5519 13.8631L32.7958 16.0542C33.141 16.3913 33.141 16.897 32.7958 17.2341L27.0134 22.7962C26.6682 23.1333 26.6682 23.6389 27.0134 23.976L30.4656 27.347C30.8108 27.6841 31.3286 27.6841 31.6739 27.347L38.6645 20.5208C39.7434 19.5516 40.4338 18.1611 40.4338 16.6441C40.4338 15.2115 39.8297 13.9052 38.8803 12.9782Z" fill="#43BC70"/>
<path d="M49.3229 23.3442C46.1728 23.3442 43.67 21.4059 42.7206 18.667C42.3322 20.0575 41.5555 21.3216 40.4335 22.3329L39.7431 23.0071C41.8576 25.8303 45.3098 27.6422 49.2798 27.6422C53.3361 27.6422 56.6588 25.746 58.687 22.5857L55.3211 20.0575C53.6813 22.2486 51.6963 23.3442 49.3229 23.3442Z" fill="white"/>
<path d="M62.6144 24.6502C60.3705 22.4591 59.2054 19.8044 59.2054 16.6863C59.2054 13.5681 60.3273 10.9556 62.6144 8.72238C64.8583 6.53125 67.5769 5.39355 70.7702 5.39355C73.9635 5.39355 76.639 6.48911 78.926 8.72238C81.1699 10.9135 82.3351 13.5681 82.3351 16.6863C82.3351 19.8044 81.2131 22.4591 78.926 24.6502C76.6821 26.8413 73.9635 27.979 70.7702 27.979C67.5769 27.979 64.8583 26.8835 62.6144 24.6502ZM65.9803 12.0091C64.6426 13.3153 63.9953 14.8744 63.9953 16.6863C63.9953 18.5403 64.6426 20.0994 65.9803 21.4056C67.318 22.7119 68.9147 23.3439 70.7702 23.3439C72.6258 23.3439 74.2656 22.7119 75.5601 21.4056C76.8979 20.0994 77.5452 18.5403 77.5452 16.6863C77.5452 14.8323 76.8979 13.2732 75.5601 12.0091C74.2224 10.7028 72.6258 10.0708 70.7702 10.0708C68.9147 10.0708 67.2749 10.7028 65.9803 12.0091ZM95.5397 27.6419C92.3464 27.6419 89.6278 26.5464 87.3407 24.3131C85.0968 22.122 83.9317 19.4673 83.9317 16.3492C83.9317 13.231 85.0537 10.5764 87.3407 8.38528C89.5847 6.15201 92.3464 5.05645 95.5397 5.05645C98.3877 5.01431 100.632 5.68851 102.315 7.03689V0H107.061V27.347H102.315V25.6615C100.977 26.9677 98.733 27.6419 95.5397 27.6419ZM95.5397 9.73367C93.641 9.73367 92.0444 10.3657 90.7066 11.672C89.3689 12.9782 88.7216 14.5373 88.7216 16.3492C88.7216 18.1611 89.3689 19.7623 90.7066 21.0264C92.0444 22.3327 93.641 22.9647 95.5397 22.9647C97.4384 22.9647 99.035 22.3327 100.33 21.0264C101.667 19.7202 102.315 18.1611 102.315 16.3492C102.315 14.5373 101.667 12.9361 100.33 11.672C98.9919 10.3657 97.3952 9.73367 95.5397 9.73367ZM120.913 27.6419C117.72 27.6419 115.001 26.5464 112.758 24.3131C110.514 22.122 109.348 19.4673 109.348 16.3492C109.348 13.231 110.47 10.5764 112.758 8.34314C115.001 6.15201 117.72 5.01431 120.913 5.01431C124.107 5.01431 126.394 5.64637 127.731 6.95262V5.26714H132.478V27.3048H127.731V25.6193C126.351 27.0099 124.107 27.6419 120.913 27.6419ZM120.913 9.73367C119.058 9.73367 117.461 10.3657 116.123 11.672C114.786 12.9782 114.138 14.5373 114.138 16.3492C114.138 18.1611 114.786 19.7623 116.08 21.0685C117.418 22.3748 119.015 23.0068 120.87 23.0068C122.726 23.0068 124.366 22.3748 125.703 21.0685C127.041 19.7623 127.688 18.2032 127.688 16.3913C127.688 14.5794 127.041 12.9782 125.703 11.7141C124.366 10.3657 122.769 9.73367 120.913 9.73367ZM146.848 5.60423H136.276V27.6419H141.022V10.2393H146.848V5.60423ZM40.7362 11.1242C41.6424 12.0091 42.2465 13.0625 42.6349 14.1581C43.4979 11.2506 46.0871 9.18588 49.3235 9.18588C51.74 9.18588 53.725 10.2814 55.3217 12.5147L58.6876 9.94435C56.7457 6.78407 53.423 4.8879 49.2803 4.8879C45.2672 4.84577 41.6424 6.82621 39.4847 9.86008L40.7362 11.1242Z" fill="white"/>
</svg>
