<svg width="34" height="40" viewBox="0 0 34 40" fill="none" xmlns="http://www.w3.org/2000/svg">
<path d="M16.7245 40L16.089 39.7173C15.9258 39.6447 12.0464 37.9 8.12867 34.5543C5.79875 32.5645 3.93531 30.4155 2.59055 28.167C0.871484 25.2929 0 22.2559 0 19.1405V9.71016C0 7.43711 1.62891 5.49531 3.87313 5.0932C7.66234 4.41414 11.1519 2.34477 12.8947 1.17172C14.0333 0.405156 15.3576 0 16.7245 0C18.0913 0 19.4156 0.405156 20.5543 1.17156C22.2971 2.34461 25.7866 4.41398 29.5759 5.09305C31.8202 5.49523 33.4491 7.43695 33.4491 9.71V19.1405C33.4491 22.2559 32.5774 25.2927 30.8585 28.167C29.5137 30.4155 27.6504 32.5645 25.3204 34.5542C21.4027 37.8999 17.5233 39.6446 17.3601 39.7172L16.7245 40ZM16.7245 3.12609C15.9819 3.12609 15.2611 3.34703 14.6402 3.76492C12.6934 5.07531 8.7775 7.39008 4.42453 8.17016C3.67219 8.305 3.12602 8.95258 3.12602 9.71008V19.1405C3.12602 29.0101 13.9588 35.1467 16.7245 36.552C17.9277 35.9411 20.6588 34.436 23.3488 32.1267C27.9764 28.1541 30.3228 23.7849 30.3228 19.1405V9.71016C30.3228 8.95273 29.7767 8.30508 29.0243 8.17023C24.6713 7.39016 20.7553 5.07523 18.8086 3.765C18.1877 3.34703 17.467 3.12609 16.7245 3.12609ZM26.7221 13.7738L24.389 11.6932L14.3038 23.0024L8.96148 18.001L6.825 20.283L14.5052 27.4734L26.7221 13.7738Z" fill="white"/>
</svg>
