<svg width="67" height="58" viewBox="0 0 67 58" fill="none" xmlns="http://www.w3.org/2000/svg">
<path fill-rule="evenodd" clip-rule="evenodd" d="M10.2043 57.5741C10.145 57.3148 10.1572 57.0463 10.2771 56.8043C10.6323 55.9692 11.1051 55.0735 11.6368 54.2978C14.2964 50.2399 18.551 47.5541 23.2797 46.8972C23.8702 46.7784 24.5206 46.9578 24.9935 47.3153C27.4755 49.1649 30.4314 50.12 33.5039 50.12C36.5764 50.12 39.5324 49.1649 42.0143 47.3142C42.4872 46.9555 43.1376 46.8367 43.7282 46.8961C48.4557 47.5518 52.6526 50.2377 55.371 54.2967C55.9038 55.0724 56.3755 55.9075 56.7308 56.8032C56.8576 57.0586 56.8639 57.3449 56.7495 57.6188C63.069 51.5256 67 42.9719 67 33.5C67 14.9985 52.0015 0 33.5 0C14.9985 0 0 14.9985 0 33.5C0 42.9488 3.91183 51.4838 10.2043 57.5741ZM33.5039 18.5446C26.0569 18.5446 19.9696 24.6919 19.9696 32.2125C19.9696 39.7331 26.0569 45.8805 33.5039 45.8805C40.9509 45.8805 47.0382 39.7331 47.0382 32.2125C47.0382 24.6919 40.9509 18.5446 33.5039 18.5446Z" fill="#F5F7FA" fill-opacity="0.5"/>
</svg>
