<svg width="147" height="40" viewBox="0 0 147 40" fill="none" xmlns="http://www.w3.org/2000/svg">
<path d="M21.361 16.7826C20.2112 16.7826 19.3035 17.771 19.3035 19.0015C19.3035 20.2319 20.2314 21.2203 21.361 21.2203C22.5108 21.2203 23.4185 20.2319 23.4185 19.0015C23.4185 17.771 22.4906 16.7826 21.361 16.7826ZM13.9984 16.7826C12.8486 16.7826 11.9409 17.771 11.9409 19.0015C11.9409 20.2319 12.8688 21.2203 13.9984 21.2203C15.1482 21.2203 16.0559 20.2319 16.0559 19.0015C16.0761 17.771 15.1482 16.7826 13.9984 16.7826Z" fill="#CBCBCB"/>
<path d="M31.1649 0H4.13515C1.85577 0 0 1.85577 0 4.13515V31.1649C0 33.4443 1.85577 35.3001 4.13515 35.3001H27.0096L25.9405 31.6087L28.5224 33.9889L30.9632 36.2279L35.3202 40V4.13515C35.3001 1.85577 33.4443 0 31.1649 0ZM23.3787 26.122C23.3787 26.122 22.6525 25.2547 22.0474 24.5083C24.6899 23.762 25.6984 22.1281 25.6984 22.1281C24.8714 22.6727 24.0847 23.056 23.3787 23.3182C22.3701 23.7418 21.4019 24.004 20.4539 24.1856C18.5174 24.5487 16.7423 24.4478 15.2295 24.1654C14.0797 23.9435 13.0913 23.6409 12.2642 23.298C11.8003 23.1165 11.296 22.8946 10.7917 22.6122C10.7312 22.5719 10.6707 22.5517 10.6102 22.5113C10.5698 22.4912 10.5497 22.471 10.5295 22.471C10.1664 22.2693 9.9647 22.1281 9.9647 22.1281C9.9647 22.1281 10.9329 23.7216 13.4947 24.4882C12.8896 25.2547 12.1432 26.1422 12.1432 26.1422C7.68532 26.001 5.99092 23.0963 5.99092 23.0963C5.99092 16.6616 8.89561 11.4372 8.89561 11.4372C11.8003 9.27887 14.5436 9.33939 14.5436 9.33939L14.7453 9.58144C11.1145 10.6102 9.46041 12.2037 9.46041 12.2037C9.46041 12.2037 9.90418 11.9617 10.6505 11.6389C12.8089 10.6909 14.5234 10.4488 15.2295 10.3681C15.3505 10.348 15.4513 10.3278 15.5724 10.3278C16.8028 10.1664 18.1947 10.1261 19.647 10.2874C21.5633 10.5093 23.6208 11.0741 25.7186 12.2037C25.7186 12.2037 24.1251 10.6909 20.6959 9.66213L20.9783 9.33939C20.9783 9.33939 23.7418 9.27887 26.6263 11.4372C26.6263 11.4372 29.531 16.6616 29.531 23.0963C29.531 23.0761 27.8366 25.9808 23.3787 26.122ZM53.8376 8.63338H47.1407V16.1573L51.5986 20.1715V12.8694H53.9788C55.4917 12.8694 56.238 13.5956 56.238 14.7655V20.353C56.238 21.5229 55.532 22.3096 53.9788 22.3096H47.1205V26.5658H53.8175C57.408 26.586 60.7766 24.7907 60.7766 20.6757V14.6646C60.7968 10.469 57.4281 8.63338 53.8376 8.63338ZM88.936 20.6757V14.5033C88.936 12.2844 92.9299 11.7801 94.1402 13.999L97.8316 12.5063C96.3792 9.31921 93.7368 8.39133 91.5381 8.39133C87.9476 8.39133 84.3974 10.469 84.3974 14.5033V20.6757C84.3974 24.7504 87.9476 26.7877 91.4574 26.7877C93.7166 26.7877 96.4196 25.6783 97.9123 22.7736L93.9587 20.9581C92.9904 23.4392 88.936 22.8341 88.936 20.6757ZM76.7322 15.3505C75.3404 15.0479 74.4125 14.5436 74.352 13.6762C74.4327 11.5986 77.6399 11.5179 79.5159 13.5149L82.4811 11.2355C80.6253 8.9763 78.5275 8.37116 76.3691 8.37116C73.0812 8.37116 69.8941 10.2269 69.8941 13.7368C69.8941 17.1457 72.5164 18.9813 75.4009 19.4251C76.8734 19.6268 78.5073 20.2118 78.467 21.2204C78.3459 23.1367 74.3923 23.0358 72.5971 20.8573L69.7327 23.5401C71.407 25.6984 73.6863 26.7877 75.8245 26.7877C79.1125 26.7877 82.7635 24.8916 82.9047 21.4221C83.1064 17.0449 79.9193 15.9355 76.7322 15.3505ZM63.2173 26.5456H67.7358V8.63338H63.2173V26.5456ZM139.405 8.63338H132.708V16.1573L137.166 20.1715V12.8694H139.546C141.059 12.8694 141.805 13.5956 141.805 14.7655V20.353C141.805 21.5229 141.099 22.3096 139.546 22.3096H132.688V26.5658H139.405C142.995 26.586 146.364 24.7907 146.364 20.6757V14.6646C146.364 10.469 142.995 8.63338 139.405 8.63338ZM106.546 8.39133C102.834 8.39133 99.1427 10.4085 99.1427 14.5436V20.6556C99.1427 24.7504 102.854 26.8079 106.586 26.8079C110.298 26.8079 113.989 24.7504 113.989 20.6556V14.5436C113.989 10.4286 110.257 8.39133 106.546 8.39133ZM109.45 20.6556C109.45 21.9465 107.998 22.6122 106.566 22.6122C105.113 22.6122 103.661 21.9869 103.661 20.6556V14.5436C103.661 13.2325 105.073 12.5265 106.485 12.5265C107.958 12.5265 109.45 13.1518 109.45 14.5436V20.6556ZM130.207 14.5436C130.106 10.348 127.242 8.65356 123.55 8.65356H116.389V26.5658H120.968V20.8775H121.775L125.93 26.5658H131.578L126.697 20.4135C128.855 19.7277 130.207 17.8517 130.207 14.5436ZM123.631 16.9642H120.968V12.8694H123.631C126.475 12.8694 126.475 16.9642 123.631 16.9642Z" fill="#CBCBCB"/>
</svg>
