<svg width="156" height="150" viewBox="0 0 156 150" fill="none" xmlns="http://www.w3.org/2000/svg">
<g clip-path="url(#clip0)">
<path d="M1.26829 37.8049H0V0H39.3171V1.21951H1.26829V37.8049Z" fill="#43BC70"/>
<g clip-path="url(#clip1)" filter="url(#filter0_f)">
<path d="M19.8255 58.7954C42.6468 58.7954 61.1471 41.0066 61.1471 19.0631C61.1471 -2.88044 42.6468 -20.6692 19.8255 -20.6692C-2.99576 -20.6692 -21.4961 -2.88044 -21.4961 19.0631C-21.4961 41.0066 -2.99576 58.7954 19.8255 58.7954Z" fill="url(#paint0_radial)" fill-opacity="0.3" style="mix-blend-mode:screen"/>
</g>
<path d="M85.416 98.3546H32.7551C32.3369 98.3546 32 98.0175 32 97.599V36.7556C32 36.3371 32.3369 36 32.7551 36H113.565C113.983 36 114.32 36.3371 114.32 36.7556V82.6613C114.32 83.0798 113.983 83.4169 113.565 83.4169C113.146 83.4169 112.809 83.0798 112.809 82.6613V37.5112H33.5102V96.8434H85.416C85.8343 96.8434 86.1712 97.1805 86.1712 97.599C86.1712 98.0175 85.8343 98.3546 85.416 98.3546Z" fill="#43BC70"/>
<path d="M113.565 51.1819H32.7551C32.3369 51.1819 32 50.8447 32 50.4263C32 50.0078 32.3369 49.6707 32.7551 49.6707H113.565C113.983 49.6707 114.32 50.0078 114.32 50.4263C114.32 50.8447 113.983 51.1819 113.565 51.1819Z" fill="#43BC70"/>
<path d="M40.922 46.5088C39.2375 46.5088 37.8667 45.137 37.8667 43.4398C37.8667 41.7543 39.2375 40.3826 40.922 40.3826C42.6065 40.3826 43.9774 41.7543 43.9774 43.4398C43.9774 45.1254 42.6065 46.5088 40.922 46.5088ZM40.922 41.9054C40.074 41.9054 39.3769 42.5912 39.3769 43.4515C39.3769 44.3117 40.074 45.0092 40.922 45.0092C41.7701 45.0092 42.4671 44.3117 42.4671 43.4515C42.4671 42.5912 41.7701 41.9054 40.922 41.9054Z" fill="#43BC70"/>
<path d="M50.8896 46.5088C49.2051 46.5088 47.8343 45.137 47.8343 43.4398C47.8343 41.7543 49.2051 40.3826 50.8896 40.3826C52.5741 40.3826 53.9333 41.7543 53.9333 43.4398C53.9333 45.1254 52.5741 46.5088 50.8896 46.5088ZM50.8896 41.9054C50.0416 41.9054 49.3445 42.5912 49.3445 43.4515C49.3445 44.3117 50.0416 45.0092 50.8896 45.0092C51.7377 45.0092 52.4231 44.3117 52.4231 43.4515C52.4231 42.5912 51.7377 41.9054 50.8896 41.9054Z" fill="#43BC70"/>
<path d="M113.565 44.1953H68.6756C68.2574 44.1953 67.9205 43.8582 67.9205 43.4397C67.9205 43.0212 68.2574 42.6841 68.6756 42.6841H113.576C113.994 42.6841 114.331 43.0212 114.331 43.4397C114.32 43.8582 113.983 44.1953 113.565 44.1953Z" fill="#43BC70"/>
<path d="M121.337 113.327H87.2284C85.8111 113.327 84.6609 112.176 84.6609 110.758V84.4515C84.6609 83.0449 85.8111 81.894 87.2284 81.894H121.337C122.754 81.894 123.892 83.0449 123.892 84.4515V110.746C123.904 112.165 122.754 113.327 121.337 113.327ZM87.2284 83.4169C86.6475 83.4169 86.1712 83.8819 86.1712 84.4631V110.758C86.1712 111.328 86.6591 111.816 87.2284 111.816H121.337C121.906 111.816 122.382 111.328 122.382 110.758V84.4515C122.382 83.8702 121.906 83.4052 121.337 83.4052H87.2284V83.4169Z" fill="#43BC70"/>
<path d="M98.2763 104.922C98.1369 104.922 97.9975 104.888 97.8813 104.806C97.6606 104.667 97.5212 104.423 97.5212 104.167V91.0543C97.5212 90.7869 97.6606 90.5544 97.8813 90.4149C98.102 90.2754 98.3809 90.2638 98.6132 90.38L111.717 96.9247C111.973 97.0526 112.136 97.32 112.136 97.5989C112.136 97.8896 111.973 98.1453 111.717 98.2732L98.6132 104.841C98.5086 104.899 98.3925 104.922 98.2763 104.922ZM99.0314 92.2749V102.946L109.696 97.6106L99.0314 92.2749Z" fill="#43BC70"/>
<path d="M69.7444 60.435H41.015C40.5968 60.435 40.2599 60.0979 40.2599 59.6794C40.2599 59.2609 40.5968 58.9238 41.015 58.9238H69.7444C70.1626 58.9238 70.4995 59.2609 70.4995 59.6794C70.4995 60.0979 70.1626 60.435 69.7444 60.435Z" fill="#43BC70"/>
<path d="M69.7444 66.1079H51.3427C50.9245 66.1079 50.5876 65.7708 50.5876 65.3523C50.5876 64.9338 50.9245 64.5967 51.3427 64.5967H69.7328C70.151 64.5967 70.4879 64.9338 70.4879 65.3523C70.4995 65.7708 70.1626 66.1079 69.7444 66.1079Z" fill="#43BC70"/>
<path d="M60.8224 71.769H41.015C40.5968 71.769 40.2599 71.4319 40.2599 71.0134C40.2599 70.5949 40.5968 70.2578 41.015 70.2578H60.8224C61.2406 70.2578 61.5775 70.5949 61.5775 71.0134C61.5775 71.4319 61.229 71.769 60.8224 71.769Z" fill="#43BC70"/>
<path d="M69.7444 77.4301H41.015C40.5968 77.4301 40.2599 77.093 40.2599 76.6745C40.2599 76.2561 40.5968 75.9189 41.015 75.9189H69.7444C70.1626 75.9189 70.4995 76.2561 70.4995 76.6745C70.4995 77.093 70.1626 77.4301 69.7444 77.4301Z" fill="#43BC70"/>
<path d="M67.9669 71.769H62.8089C62.3907 71.769 62.0538 71.4319 62.0538 71.0134C62.0538 70.5949 62.3907 70.2578 62.8089 70.2578H67.9669C68.3852 70.2578 68.7221 70.5949 68.7221 71.0134C68.7221 71.4319 68.3852 71.769 67.9669 71.769Z" fill="#43BC70"/>
<path d="M48.1944 66.1079H43.0364C42.6181 66.1079 42.2812 65.7708 42.2812 65.3523C42.2812 64.9338 42.6181 64.5967 43.0364 64.5967H48.1944C48.6126 64.5967 48.9495 64.9338 48.9495 65.3523C48.9495 65.7708 48.6126 66.1079 48.1944 66.1079Z" fill="#43BC70"/>
</g>
<defs>
<filter id="filter0_f" x="-71.4961" y="-70.6692" width="182.637" height="179.459" filterUnits="userSpaceOnUse" color-interpolation-filters="sRGB">
<feFlood flood-opacity="0" result="BackgroundImageFix"/>
<feBlend mode="normal" in="SourceGraphic" in2="BackgroundImageFix" result="shape"/>
<feGaussianBlur stdDeviation="25" result="effect1_foregroundBlur"/>
</filter>
<radialGradient id="paint0_radial" cx="0" cy="0" r="1" gradientUnits="userSpaceOnUse" gradientTransform="translate(20.5338 19.5275) scale(37.7939 36.3403)">
<stop stop-color="#43BC70" stop-opacity="0.1"/>
<stop offset="0.0852" stop-color="#43BC71" stop-opacity="0.75"/>
<stop offset="0.171875" stop-color="#43BC70" stop-opacity="0.55"/>
<stop offset="0.244792" stop-color="#43BC70" stop-opacity="0.4"/>
<stop offset="0.411" stop-color="#43BC70"/>
<stop offset="0.6433" stop-color="#43BC70" stop-opacity="0.4"/>
<stop offset="0.7581" stop-color="#43BC70" stop-opacity="0.4"/>
</radialGradient>
<clipPath id="clip0">
<rect width="156" height="150" fill="white"/>
</clipPath>
<clipPath id="clip1">
<rect width="82.637" height="79.4587" fill="white" transform="translate(-21.4961 -20.6692)"/>
</clipPath>
</defs>
</svg>
