<svg width="156" height="150" viewBox="0 0 156 150" fill="none" xmlns="http://www.w3.org/2000/svg">
<g clip-path="url(#clip0)">
<path d="M1.26829 37.8049H0V0H39.3171V1.21951H1.26829V37.8049Z" fill="#43BC70"/>
<g clip-path="url(#clip1)" filter="url(#filter0_f)">
<path d="M19.8255 58.7954C42.6468 58.7954 61.1471 41.0066 61.1471 19.0631C61.1471 -2.88044 42.6468 -20.6692 19.8255 -20.6692C-2.99579 -20.6692 -21.4961 -2.88044 -21.4961 19.0631C-21.4961 41.0066 -2.99579 58.7954 19.8255 58.7954Z" fill="url(#paint0_radial)" fill-opacity="0.3" style="mix-blend-mode:screen"/>
</g>
<path d="M81.1776 116.382H74.9624C74.5906 116.382 74.277 116.103 74.2189 115.743L72.4995 104.304C70.5827 103.979 68.7007 103.467 66.8884 102.805L59.6973 111.849C59.465 112.139 59.0584 112.221 58.7331 112.035L53.3427 108.919C53.0174 108.733 52.878 108.338 53.0174 107.989L57.2577 97.225C55.7591 95.9696 54.3882 94.5862 53.1568 93.1215L42.3876 97.3529C42.0391 97.4924 41.6441 97.3529 41.4583 97.0274L38.3449 91.6335C38.159 91.3081 38.2403 90.9012 38.5307 90.6687L47.5689 83.4614C46.9068 81.6596 46.4072 79.7764 46.0703 77.8467L34.639 76.1263C34.2672 76.0682 34 75.7543 34 75.3823V69.9885C34 69.6165 34.2788 69.291 34.639 69.2445L46.0703 67.5357C46.4072 65.6176 46.9068 63.7344 47.5689 61.921L38.5307 54.7253C38.2403 54.4928 38.159 54.0744 38.3449 53.7605L41.4583 48.3666C41.6441 48.0411 42.0391 47.9017 42.3876 48.0411L53.1568 52.2725C54.3999 50.7846 55.7823 49.4013 57.2577 48.169L53.0174 37.4046C52.878 37.0559 53.0174 36.6606 53.3427 36.4747L58.7331 33.3593C59.0584 33.1733 59.465 33.2546 59.6973 33.5452L66.8884 42.5892C68.7123 41.9266 70.5943 41.4151 72.4995 41.0896L74.2189 29.6394C74.277 29.2674 74.5906 29 74.9624 29H81.1776C81.5493 29 81.863 29.279 81.9211 29.6394L83.6404 41.0896C85.5457 41.4151 87.4276 41.9266 89.2515 42.5892L96.4426 33.5452C96.675 33.2546 97.0932 33.1733 97.4068 33.3593L102.797 36.4747C103.123 36.6606 103.262 37.0559 103.123 37.4046L98.8939 48.169C100.369 49.4013 101.752 50.7846 102.995 52.2725L113.752 48.0411C114.101 47.9017 114.496 48.0411 114.682 48.3666L117.795 53.7605C117.981 54.086 117.9 54.4928 117.609 54.7253L108.559 61.921C109.222 63.7228 109.721 65.606 110.058 67.5357L121.489 69.2561C121.861 69.3142 122.128 69.6281 122.128 70.0001V75.3823C122.128 75.7543 121.849 76.0682 121.489 76.1263L110.058 77.8467C109.721 79.7764 109.222 81.6596 108.559 83.4614L117.609 90.6687C117.9 90.9012 117.981 91.3197 117.795 91.6335L114.682 97.0274C114.496 97.3529 114.101 97.4924 113.752 97.3529L102.995 93.1215C101.752 94.6095 100.381 95.9812 98.8939 97.225L103.123 108.001C103.262 108.35 103.123 108.745 102.797 108.931L97.4068 112.046C97.0816 112.232 96.675 112.151 96.4426 111.86L89.2515 102.816C87.4393 103.479 85.5573 103.991 83.6404 104.316L81.9211 115.755C81.863 116.103 81.5493 116.382 81.1776 116.382ZM75.6129 114.871H80.527L82.2231 103.537C82.2696 103.212 82.5252 102.956 82.8505 102.898C85.0345 102.561 87.1721 101.991 89.2167 101.201C89.5187 101.084 89.8789 101.177 90.0764 101.433L97.2094 110.396L101.473 107.931L97.2791 97.2483C97.1629 96.946 97.2558 96.5857 97.5114 96.3881C99.2191 95.0047 100.787 93.447 102.17 91.7382C102.379 91.4825 102.728 91.3895 103.03 91.5057L113.694 95.7022L116.157 91.436L107.189 84.2868C106.933 84.0776 106.84 83.7288 106.956 83.4266C107.746 81.4039 108.315 79.265 108.664 77.0563C108.71 76.7308 108.966 76.475 109.291 76.4285L120.618 74.7313V70.6511L109.291 68.9423C108.966 68.8958 108.71 68.64 108.664 68.3145C108.315 66.1175 107.746 63.9669 106.956 61.9326C106.84 61.6304 106.933 61.27 107.189 61.0724L116.157 53.9348L113.694 49.6686L103.03 53.8651C102.716 53.993 102.379 53.8884 102.17 53.6326C100.776 51.9006 99.2075 50.3312 97.5114 48.9711C97.2558 48.7619 97.1629 48.4132 97.2791 48.1109L101.473 37.4395L97.2094 34.9751L90.0764 43.9377C89.8673 44.1934 89.5187 44.2864 89.2167 44.1702C87.1721 43.3797 85.0229 42.8101 82.8505 42.473C82.5252 42.4265 82.2696 42.1707 82.2231 41.8336L80.527 30.488H75.6129L73.9052 41.8336C73.8587 42.1591 73.6031 42.4148 73.2779 42.473C71.1054 42.8101 68.9562 43.3797 66.9116 44.1702C66.6096 44.2864 66.2611 44.1934 66.052 43.9377L58.919 34.9751L54.6554 37.4395L58.8493 48.1109C58.9654 48.4132 58.8725 48.7735 58.6169 48.9711C56.9092 50.3428 55.3525 51.9122 53.9584 53.6326C53.7493 53.8884 53.4008 53.9814 53.0987 53.8651L42.4225 49.6686L39.9596 53.9348L48.9165 61.0724C49.1721 61.2816 49.265 61.6304 49.1489 61.9326C48.3589 63.9785 47.7897 66.1175 47.4528 68.3145C47.4063 68.64 47.1507 68.8958 46.8138 68.9423L35.487 70.6395V74.7313L46.8254 76.4285C47.1507 76.475 47.4063 76.7308 47.4644 77.0563C47.8013 79.2533 48.3821 81.3923 49.1605 83.415C49.2767 83.7172 49.1837 84.0775 48.9281 84.2752L39.9596 91.4243L42.4225 95.6906L53.0987 91.4941C53.4008 91.3662 53.7609 91.4708 53.9584 91.7266C55.3176 93.4238 56.8859 94.9931 58.6169 96.3881C58.8725 96.5973 58.9654 96.946 58.8493 97.2483L54.6554 107.92L58.919 110.384L66.052 101.422C66.2611 101.166 66.6096 101.073 66.9116 101.189C68.9562 101.979 71.1054 102.549 73.2779 102.886C73.6031 102.933 73.8587 103.188 73.9052 103.526L75.6129 114.871Z" fill="#43BC70"/>
<path d="M78.0641 95.0164C65.7615 95.0164 55.759 85.0077 55.759 72.6972C55.759 60.3867 65.7615 50.3662 78.0641 50.3662C90.3668 50.3662 100.369 60.3867 100.369 72.6972C100.381 85.0077 90.3668 95.0164 78.0641 95.0164ZM78.0641 51.8774C66.5979 51.8774 57.2693 61.212 57.2693 72.6855C57.2693 84.159 66.5979 93.4936 78.0641 93.4936C89.5303 93.4936 98.859 84.159 98.859 72.6855C98.8706 61.212 89.5303 51.8774 78.0641 51.8774Z" fill="#43BC70"/>
<path d="M78.0642 95.0164C71.454 95.0164 66.2727 85.2053 66.2727 72.6972C66.2727 60.1774 71.454 50.3662 78.0642 50.3662C84.6744 50.3662 89.8557 60.1774 89.8557 72.6972C89.8673 85.2053 84.686 95.0164 78.0642 95.0164ZM78.0642 51.8774C72.395 51.8774 67.7829 61.212 67.7829 72.6855C67.7829 84.159 72.395 93.4936 78.0642 93.4936C83.6405 93.4936 88.3454 83.9614 88.3454 72.6855C88.3454 61.4096 83.6405 51.8774 78.0642 51.8774Z" fill="#43BC70"/>
<path d="M99.6257 73.4526H56.5141C56.0959 73.4526 55.759 73.1155 55.759 72.697C55.759 72.2785 56.0959 71.9414 56.5141 71.9414H99.6141C100.032 71.9414 100.369 72.2785 100.369 72.697C100.381 73.1155 100.044 73.4526 99.6257 73.4526Z" fill="#43BC70"/>
<path d="M78.0642 95.0164C77.646 95.0164 77.3091 94.6793 77.3091 94.2609V51.1218C77.3091 50.7034 77.646 50.3662 78.0642 50.3662C78.4824 50.3662 78.8193 50.7034 78.8193 51.1218V94.2609C78.8193 94.6793 78.4824 95.0164 78.0642 95.0164Z" fill="#43BC70"/>
<path d="M78.1338 63.7461C72.2207 63.7461 66.2843 62.758 60.3595 60.7701C59.9645 60.6423 59.7554 60.2122 59.8832 59.8169C60.0109 59.4217 60.4408 59.2008 60.8358 59.3403C72.3485 63.1997 83.9425 63.1997 95.2925 59.3403C95.6875 59.2008 96.1173 59.4217 96.2451 59.8169C96.3845 60.2122 96.1638 60.6423 95.7688 60.7701C89.9486 62.758 84.047 63.7461 78.1338 63.7461Z" fill="#43BC70"/>
<path d="M60.5918 85.6468C60.2782 85.6468 59.9877 85.4492 59.8716 85.1353C59.7438 84.7401 59.9529 84.31 60.3479 84.1821C72.1742 80.2065 84.0819 80.2065 95.7688 84.1821C96.1638 84.3216 96.3729 84.7401 96.2451 85.1353C96.1057 85.5306 95.6875 85.7398 95.2925 85.6119C83.9309 81.741 72.3369 81.7526 60.8358 85.6119C60.7545 85.6352 60.6731 85.6468 60.5918 85.6468Z" fill="#43BC70"/>
<path d="M119.886 116.383H36.2422C35.824 116.383 35.4871 116.045 35.4871 115.627C35.4871 115.208 35.824 114.871 36.2422 114.871H119.886C120.304 114.871 120.641 115.208 120.641 115.627C120.641 116.045 120.304 116.383 119.886 116.383Z" fill="#43BC70"/>
<path d="M109.419 120.963H46.7092C46.291 120.963 45.9541 120.626 45.9541 120.207C45.9541 119.789 46.291 119.451 46.7092 119.451H109.419C109.837 119.451 110.174 119.789 110.174 120.207C110.174 120.626 109.837 120.963 109.419 120.963Z" fill="#43BC70"/>
</g>
<defs>
<filter id="filter0_f" x="-71.4961" y="-70.6692" width="182.637" height="179.459" filterUnits="userSpaceOnUse" color-interpolation-filters="sRGB">
<feFlood flood-opacity="0" result="BackgroundImageFix"/>
<feBlend mode="normal" in="SourceGraphic" in2="BackgroundImageFix" result="shape"/>
<feGaussianBlur stdDeviation="25" result="effect1_foregroundBlur"/>
</filter>
<radialGradient id="paint0_radial" cx="0" cy="0" r="1" gradientUnits="userSpaceOnUse" gradientTransform="translate(20.5338 19.5275) scale(37.7939 36.3403)">
<stop stop-color="#43BC70" stop-opacity="0.1"/>
<stop offset="0.0852" stop-color="#43BC71" stop-opacity="0.75"/>
<stop offset="0.171875" stop-color="#43BC70" stop-opacity="0.55"/>
<stop offset="0.244792" stop-color="#43BC70" stop-opacity="0.4"/>
<stop offset="0.411" stop-color="#43BC70"/>
<stop offset="0.6433" stop-color="#43BC70" stop-opacity="0.4"/>
<stop offset="0.7581" stop-color="#43BC70" stop-opacity="0.4"/>
</radialGradient>
<clipPath id="clip0">
<rect width="156" height="150" fill="white"/>
</clipPath>
<clipPath id="clip1">
<rect width="82.637" height="79.4587" fill="white" transform="translate(-21.4961 -20.6692)"/>
</clipPath>
</defs>
</svg>
