<svg width="156" height="150" viewBox="0 0 156 150" fill="none" xmlns="http://www.w3.org/2000/svg">
<g clip-path="url(#clip0)">
<path d="M1.26829 37.8049H0V0H39.3171V1.21951H1.26829V37.8049Z" fill="#43BC70"/>
<g clip-path="url(#clip1)" filter="url(#filter0_f)">
<path d="M19.8255 58.7954C42.6468 58.7954 61.1471 41.0066 61.1471 19.0631C61.1471 -2.88044 42.6468 -20.6692 19.8255 -20.6692C-2.99579 -20.6692 -21.4961 -2.88044 -21.4961 19.0631C-21.4961 41.0066 -2.99579 58.7954 19.8255 58.7954Z" fill="url(#paint0_radial)" fill-opacity="0.3" style="mix-blend-mode:screen"/>
</g>
<path d="M84.1813 112.779H53.721C53.3027 112.779 52.9658 112.442 52.9658 112.023V41.2988C52.9658 40.8803 53.3027 40.5432 53.721 40.5432H92.3715C92.569 40.5432 92.7665 40.6246 92.9059 40.7641L105.789 53.6558C105.929 53.7953 106.01 53.9929 106.01 54.1905V95.644C106.01 96.0625 105.673 96.3996 105.255 96.3996C104.837 96.3996 104.5 96.0625 104.5 95.644V54.5044L92.0578 42.066H54.476V111.279H84.1813C84.5995 111.279 84.9365 111.616 84.9365 112.035C84.9365 112.442 84.5995 112.779 84.1813 112.779Z" fill="#43BC70"/>
<path d="M41.7551 101.224C41.3369 101.224 41 100.887 41 100.468V29.7556C41 29.3371 41.3369 29 41.7551 29H93.2892C93.7074 29 94.0443 29.3371 94.0443 29.7556C94.0443 30.1741 93.7074 30.5112 93.2892 30.5112H42.5102V100.457C42.5102 100.887 42.1734 101.224 41.7551 101.224Z" fill="#43BC70"/>
<path d="M105.278 54.9461C105.278 54.9461 105.267 54.9461 105.255 54.9461H92.3715C91.9533 54.9461 91.6163 54.609 91.6163 54.1905V41.3105C91.6163 41.0083 91.8022 40.7293 92.081 40.613C92.3599 40.4968 92.6851 40.5549 92.9058 40.7757L105.685 53.5628C105.894 53.7023 106.033 53.9348 106.033 54.1905C106.033 54.609 105.696 54.9461 105.278 54.9461ZM93.1266 53.435H103.431L93.1266 43.1239V53.435Z" fill="#43BC70"/>
<path d="M98.0754 116.394C91.4303 116.394 86.0283 110.989 86.0283 104.339C86.0283 97.6901 91.4303 92.2847 98.0754 92.2847C104.709 92.2847 110.122 97.6901 110.122 104.339C110.111 110.989 104.709 116.394 98.0754 116.394ZM98.0754 93.8075C92.2668 93.8075 87.5385 98.5387 87.5385 104.351C87.5385 110.163 92.2668 114.883 98.0754 114.883C103.884 114.883 108.601 110.152 108.601 104.351C108.601 98.5271 103.884 93.8075 98.0754 93.8075Z" fill="#43BC70"/>
<path d="M101.003 94.2027C100.933 94.2027 100.864 94.1911 100.805 94.1794C99.0512 93.6912 97.088 93.6912 95.3454 94.1794C95.113 94.2492 94.869 94.1911 94.6832 94.0516C94.4973 93.9121 94.3811 93.6912 94.3811 93.4471V88.4834C94.3811 88.0649 94.718 87.7278 95.1362 87.7278H101.003C101.421 87.7278 101.758 88.0649 101.758 88.4834V93.4471C101.758 93.6796 101.642 93.9005 101.456 94.0516C101.328 94.1446 101.166 94.2027 101.003 94.2027ZM95.8913 89.2274V92.4822C97.3086 92.2149 98.8305 92.2149 100.248 92.4822V89.2274H95.8913Z" fill="#43BC70"/>
<path d="M108.972 102.189C108.879 102.189 108.775 102.166 108.682 102.131C108.461 102.038 108.299 101.852 108.24 101.631C108.008 100.759 107.66 99.8988 107.183 99.0734C106.719 98.2713 106.161 97.5273 105.499 96.8763C105.336 96.7136 105.255 96.4811 105.278 96.2486C105.313 96.0161 105.441 95.8069 105.65 95.6906L109.948 93.2146C110.308 93.0053 110.773 93.1332 110.982 93.4935L113.921 98.5852C114.026 98.7595 114.049 98.9688 114.003 99.1548C113.956 99.3524 113.828 99.5152 113.654 99.6082L109.356 102.084C109.24 102.154 109.112 102.189 108.972 102.189ZM107.241 96.5276C107.718 97.0856 108.136 97.6901 108.496 98.3178C108.868 98.9688 109.17 99.6314 109.414 100.306L112.237 98.6782L110.053 94.9002L107.241 96.5276Z" fill="#43BC70"/>
<path d="M110.343 115.58C110.216 115.58 110.088 115.545 109.972 115.476L105.673 112.999C105.476 112.883 105.336 112.674 105.301 112.442C105.267 112.209 105.348 111.977 105.511 111.814C106.161 111.151 106.73 110.419 107.195 109.617C107.671 108.791 108.02 107.931 108.252 107.059C108.31 106.827 108.473 106.641 108.694 106.548C108.914 106.455 109.158 106.466 109.367 106.594L113.666 109.082C114.026 109.291 114.154 109.756 113.945 110.117L111.006 115.208C110.855 115.441 110.599 115.58 110.343 115.58ZM107.242 112.162L110.065 113.79L112.249 110.012L109.426 108.373C109.182 109.047 108.88 109.721 108.508 110.361C108.136 111.012 107.706 111.605 107.242 112.162Z" fill="#43BC70"/>
<path d="M101.003 120.962H95.1362C94.718 120.962 94.3811 120.625 94.3811 120.207V115.255C94.3811 115.022 94.4857 114.801 94.6715 114.662C94.8574 114.522 95.1014 114.476 95.3221 114.534C97.1112 114.999 99.0164 115.011 100.805 114.534C101.026 114.476 101.27 114.522 101.456 114.662C101.642 114.801 101.746 115.022 101.746 115.255V120.207C101.758 120.625 101.421 120.962 101.003 120.962ZM95.8913 119.451H100.248V116.196C98.8073 116.452 97.3319 116.452 95.8913 116.196V119.451Z" fill="#43BC70"/>
<path d="M85.8076 115.58C85.552 115.58 85.2965 115.441 85.157 115.197L82.2179 110.105C82.1133 109.931 82.0901 109.722 82.1366 109.536C82.1831 109.338 82.3108 109.175 82.4851 109.082L86.7835 106.606C86.981 106.49 87.2365 106.467 87.4456 106.56C87.6663 106.653 87.829 106.839 87.8871 107.059C88.131 107.955 88.4796 108.815 88.9443 109.617C89.3973 110.419 89.9666 111.151 90.6288 111.814C90.7914 111.977 90.8727 112.209 90.8379 112.442C90.803 112.674 90.6636 112.883 90.4661 113L86.1677 115.476C86.0632 115.545 85.9354 115.58 85.8076 115.58ZM83.9024 110.012L86.0864 113.79L88.9094 112.163C88.4331 111.605 88.0149 111 87.6431 110.372C87.283 109.745 86.9693 109.07 86.7253 108.385L83.9024 110.012Z" fill="#43BC70"/>
<path d="M87.1669 102.189C87.0392 102.189 86.9114 102.154 86.7952 102.084L82.4969 99.6082C82.3226 99.5035 82.1948 99.3408 82.1483 99.1548C82.1018 98.9572 82.1251 98.7595 82.2296 98.5852L85.1688 93.4935C85.3779 93.1332 85.8426 93.0053 86.2028 93.2146L90.5011 95.6906C90.7102 95.8069 90.838 96.0161 90.8728 96.2486C90.9077 96.4811 90.8264 96.7136 90.6637 96.8763C90.0132 97.5273 89.4439 98.2713 88.9792 99.0734C88.5145 99.8755 88.1661 100.736 87.9221 101.631C87.864 101.863 87.7014 102.038 87.4806 102.131C87.3645 102.177 87.2599 102.189 87.1669 102.189ZM83.9025 98.6782L86.7255 100.306C86.9694 99.6198 87.2715 98.9572 87.6433 98.3178C88.0034 97.6784 88.4332 97.0856 88.9095 96.5276L86.0866 94.9002L83.9025 98.6782Z" fill="#43BC70"/>
<path d="M98.0754 110.756C94.5438 110.756 91.6743 107.885 91.6743 104.351C91.6743 100.829 94.5438 97.9575 98.0754 97.9575C101.607 97.9575 104.477 100.829 104.477 104.351C104.465 107.873 101.595 110.756 98.0754 110.756ZM98.0754 99.4571C95.3802 99.4571 93.1845 101.654 93.1845 104.339C93.1845 107.036 95.3802 109.233 98.0754 109.233C100.771 109.233 102.966 107.036 102.966 104.339C102.955 101.654 100.771 99.4571 98.0754 99.4571Z" fill="#43BC70"/>
<path d="M70.0896 71.2787C69.8805 71.2787 69.6598 71.1857 69.5088 71.0113L64.7573 65.3966C64.525 65.1176 64.5134 64.7224 64.7457 64.4318L69.2068 58.8287C69.474 58.5032 69.9386 58.4451 70.2639 58.7125C70.5892 58.9682 70.6473 59.4448 70.3801 59.7703L66.3025 64.8851L70.6589 70.0232C70.9261 70.3371 70.8913 70.8137 70.566 71.0927C70.4382 71.2206 70.2639 71.2787 70.0896 71.2787Z" fill="#43BC70"/>
<path d="M82.0785 71.2788C81.9042 71.2788 81.73 71.2207 81.5906 71.1045C81.2769 70.8371 81.2304 70.3605 81.4976 70.035L85.8541 64.8969L81.7764 59.782C81.5208 59.4565 81.5673 58.9799 81.8926 58.7242C82.2179 58.4684 82.6942 58.5149 82.9498 58.8404L87.4108 64.4435C87.6316 64.7225 87.6316 65.1294 87.3992 65.4084L82.6477 71.0231C82.4967 71.1858 82.2876 71.2788 82.0785 71.2788Z" fill="#43BC70"/>
<path d="M73.203 70.4649C73.0752 70.4649 72.9358 70.4301 72.8196 70.3603C72.4595 70.1511 72.3433 69.6861 72.5524 69.3257L78.8025 58.7124C79.0116 58.3521 79.4763 58.2358 79.8365 58.4451C80.1966 58.6543 80.3128 59.1193 80.1037 59.4797L73.8536 70.0929C73.7142 70.3371 73.4586 70.4649 73.203 70.4649Z" fill="#43BC70"/>
<path d="M84.3788 85.333H59.4133C58.9951 85.333 58.6582 84.9959 58.6582 84.5774C58.6582 84.1589 58.9951 83.8218 59.4133 83.8218H84.3788C84.797 83.8218 85.1339 84.1589 85.1339 84.5774C85.1339 84.9959 84.797 85.333 84.3788 85.333Z" fill="#43BC70"/>
<path d="M84.3788 90.9826H59.4133C58.9951 90.9826 58.6582 90.6455 58.6582 90.227C58.6582 89.8085 58.9951 89.4714 59.4133 89.4714H84.3788C84.797 89.4714 85.1339 89.8085 85.1339 90.227C85.1339 90.6455 84.797 90.9826 84.3788 90.9826Z" fill="#43BC70"/>
<path d="M65.7215 96.6206H59.4133C58.9951 96.6206 58.6582 96.2835 58.6582 95.865C58.6582 95.4465 58.9951 95.1094 59.4133 95.1094H65.7215C66.1397 95.1094 66.4766 95.4465 66.4766 95.865C66.4766 96.2835 66.1397 96.6206 65.7215 96.6206Z" fill="#43BC70"/>
<path d="M71.6114 102.282H59.4133C58.9951 102.282 58.6582 101.945 58.6582 101.526C58.6582 101.108 58.9951 100.771 59.4133 100.771H71.6114C72.0296 100.771 72.3665 101.108 72.3665 101.526C72.3665 101.945 72.0296 102.282 71.6114 102.282Z" fill="#43BC70"/>
<path d="M75.6077 96.6206H69.2879C68.8697 96.6206 68.5328 96.2835 68.5328 95.865C68.5328 95.4465 68.8697 95.1094 69.2879 95.1094H75.6077C76.0259 95.1094 76.3629 95.4465 76.3629 95.865C76.3629 96.2835 76.0143 96.6206 75.6077 96.6206Z" fill="#43BC70"/>
</g>
<defs>
<filter id="filter0_f" x="-71.4961" y="-70.6692" width="182.637" height="179.459" filterUnits="userSpaceOnUse" color-interpolation-filters="sRGB">
<feFlood flood-opacity="0" result="BackgroundImageFix"/>
<feBlend mode="normal" in="SourceGraphic" in2="BackgroundImageFix" result="shape"/>
<feGaussianBlur stdDeviation="25" result="effect1_foregroundBlur"/>
</filter>
<radialGradient id="paint0_radial" cx="0" cy="0" r="1" gradientUnits="userSpaceOnUse" gradientTransform="translate(20.5338 19.5275) scale(37.7939 36.3403)">
<stop stop-color="#43BC70" stop-opacity="0.1"/>
<stop offset="0.0852" stop-color="#43BC71" stop-opacity="0.75"/>
<stop offset="0.171875" stop-color="#43BC70" stop-opacity="0.55"/>
<stop offset="0.244792" stop-color="#43BC70" stop-opacity="0.4"/>
<stop offset="0.411" stop-color="#43BC70"/>
<stop offset="0.6433" stop-color="#43BC70" stop-opacity="0.4"/>
<stop offset="0.7581" stop-color="#43BC70" stop-opacity="0.4"/>
</radialGradient>
<clipPath id="clip0">
<rect width="156" height="150" fill="white"/>
</clipPath>
<clipPath id="clip1">
<rect width="82.637" height="79.4587" fill="white" transform="translate(-21.4961 -20.6692)"/>
</clipPath>
</defs>
</svg>
