<svg width="92" height="92" viewBox="0 0 92 92" fill="none" xmlns="http://www.w3.org/2000/svg">
<path d="M86.1158 0H5.88418C2.62403 0 0 2.62403 0 5.88418V86.1158C0 89.3362 2.62403 92 5.88418 92H86.1158C89.376 92 92 89.376 92 86.1158V5.88418C91.9602 2.62403 89.3362 0 86.1158 0ZM41.7857 51.8444C41.7857 54.3889 41.5471 56.5756 41.07 58.3647C40.5929 60.1538 39.8375 61.6249 38.8833 62.7381C37.8894 63.8513 36.6569 64.6863 35.2256 65.2031C33.7545 65.72 32.0449 65.9585 30.0968 65.9585C28.3872 65.9585 26.8366 65.6802 25.4451 65.1634C24.0536 64.6067 22.9006 63.8513 21.9067 62.8574C20.9525 61.8634 20.1971 60.6309 19.6404 59.1997C19.1236 57.7684 18.8453 56.178 18.8453 54.4287V53.2757H24.3717C24.3717 58.4045 26.28 60.9888 30.057 60.9888C31.0112 60.9888 31.8859 60.8695 32.6413 60.6309C33.3967 60.3924 34.0328 59.9551 34.5895 59.3189C35.1063 58.6828 35.5039 57.7684 35.7822 56.6154C36.0605 55.4624 36.1798 53.9516 36.1798 52.083V23.4175H41.7459V51.8444H41.7857ZM72.5186 60.1936C71.962 61.3466 71.1271 62.3803 70.0933 63.2152C69.0596 64.0899 67.7874 64.7658 66.2766 65.2429C64.7658 65.72 63.0959 65.9585 61.2273 65.9585C52.9974 65.9585 48.6638 62.6984 48.2264 56.2178H53.6335C53.6733 59.8755 56.1781 61.7442 61.1876 61.7442C62.3008 61.7442 63.2947 61.6249 64.1296 61.3863C65.0043 61.1478 65.72 60.79 66.2766 60.3924C66.8332 59.9551 67.2705 59.4382 67.5886 58.8816C67.8669 58.2852 68.0259 57.6889 68.0259 56.9732C68.0259 56.2576 67.9067 55.6612 67.7079 55.2239C67.4693 54.7865 67.032 54.3889 66.3959 54.0311C65.7597 53.6733 64.8453 53.3552 63.7321 53.0372C62.5791 52.7191 61.108 52.2818 59.2792 51.8047C57.4901 51.3673 55.9395 50.93 54.6275 50.4529C53.3155 50.0156 52.242 49.4987 51.4468 48.8626C50.6119 48.2264 49.9758 47.4313 49.5782 46.5169C49.1806 45.6024 48.9818 44.4097 48.9818 42.9784C48.9818 41.7459 49.2602 40.5929 49.777 39.5194C50.2939 38.446 51.0493 37.5315 52.0432 36.7364C53.0372 35.9412 54.1901 35.3449 55.6214 34.9075C57.013 34.4702 58.5635 34.2316 60.2731 34.2316C68.2247 34.2316 72.28 37.0545 72.3993 42.7398H67.0717C66.873 39.917 64.7658 38.4857 60.6707 38.4857C59.7563 38.4857 58.9213 38.5653 58.1659 38.764C57.4105 38.9628 56.7347 39.2014 56.1383 39.5592C55.5419 39.917 55.1443 40.3146 54.7865 40.8315C54.4685 41.3086 54.3094 41.9049 54.3094 42.5411C54.3094 43.1374 54.3889 43.6145 54.548 44.0121C54.707 44.4097 55.0648 44.7675 55.6214 45.0856C56.178 45.4036 57.013 45.7217 58.0864 46.0398C59.1997 46.3578 60.6707 46.7554 62.5791 47.2325C64.408 47.6698 65.9983 48.1469 67.35 48.624C68.7018 49.1011 69.815 49.6975 70.7295 50.3336C71.6439 51.0095 72.28 51.8444 72.7174 52.7986C73.1547 53.7528 73.3535 54.9853 73.3535 56.4564C73.3933 57.7286 73.0752 59.0009 72.5186 60.1936Z" fill="white" fill-opacity="0.5"/>
</svg>
