<svg width="93" height="108" viewBox="0 0 93 108" fill="none" xmlns="http://www.w3.org/2000/svg">
<path d="M68.6739 47.4945C68.6739 47.4945 67.7863 39.8078 59.6095 39.8078C51.4327 39.8078 45.8402 40.8822 45.8402 45.4405C45.8402 49.9988 61.746 49.9988 67.7863 51.7841C73.8266 53.5695 79.1599 58.2147 76.4972 66.4385C73.8344 74.6623 65.6577 75.555 53.0351 75.555C40.4126 75.555 37.5692 65.0086 37.5692 60.9007H44.6777C44.6777 60.9007 43.7901 67.3312 52.1397 68.4056C60.4892 69.48 68.4775 70.0804 69.5536 63.5787C70.9832 54.9994 42.549 59.2891 40.0591 50.8914C37.954 43.7973 39.1715 34.4438 53.3886 33.0139C67.6056 31.584 75.4289 37.8961 75.4289 47.3128L68.6739 47.4945Z" fill="white" fill-opacity="0.5"/>
<path d="M0 80.998L15.7173 90.1225C23.6113 94.7044 33.4847 88.977 33.4847 79.8051V63.8157V34.3884H27.0831V78.0198C27.0831 83.0283 21.6948 86.1567 17.3825 83.6524L6.40946 77.2772V30.7149L46.5 7.44174L86.5905 30.7228V77.2851L46.5 100.558L34.9535 93.8512L27.413 96.9085L46.5 107.992L93 80.9901V27.002L46.5 0L0 27.002V80.998Z" fill="white" fill-opacity="0.5"/>
</svg>
