<svg width="92" height="105" viewBox="0 0 92 105" fill="none" xmlns="http://www.w3.org/2000/svg">
<g clip-path="url(#clip0)">
<path d="M90.3251 24.4602C88.7397 22.0739 85.3706 19.2898 77.8398 19.2898C72.6871 19.4886 67.7326 20.2841 62.7781 21.875C59.0127 8.55114 52.8691 0 45.9328 0C38.9965 0 32.853 8.55114 29.0875 21.875C24.3312 20.2841 19.1786 19.4886 14.0259 19.2898C6.29687 19.2898 2.92782 22.0739 1.34238 24.4602C-1.63032 29.4318 0.351482 36.9886 7.08959 45.7386C8.87321 48.125 10.855 50.3125 12.8368 52.5C10.855 54.6875 8.87321 56.875 7.08959 59.0625C0.351482 68.0114 -1.63032 75.5682 1.54056 80.5398C3.126 82.9261 6.49505 85.7102 14.2241 85.7102C19.3767 85.5114 24.3312 84.7159 29.2857 83.125C33.0511 96.4489 39.1947 105 46.131 105C53.0673 105 59.409 96.4489 62.9763 83.125C67.7326 84.7159 72.8853 85.5114 78.0379 85.7102C85.767 85.7102 89.136 82.9261 90.5233 80.5398C93.6942 75.5682 91.7123 68.0114 84.9742 59.0625C83.1906 56.6761 81.2088 54.4886 79.227 52.5C81.2088 50.3125 83.1906 48.125 84.9742 45.7386C91.5142 36.9886 93.496 29.4318 90.3251 24.4602ZM14.0259 81.9318C10.855 81.9318 6.49505 81.3352 4.71144 78.5511C2.53146 75.1705 4.51326 69.0057 10.0623 61.6477C11.8459 59.4602 13.6295 57.2727 15.6113 55.2841C18.7822 58.267 22.1513 61.0511 25.5203 63.6364C25.9167 69.0057 26.7094 74.1761 27.8985 79.3466C23.5385 80.9375 18.7822 81.733 14.0259 81.9318ZM25.3221 58.4659C22.944 56.4773 20.5658 54.4886 18.3858 52.5C20.5658 50.5114 22.7458 48.5227 25.3221 46.5341C25.3221 48.5227 25.124 50.5114 25.124 52.5C25.124 54.4886 25.3221 56.4773 25.3221 58.4659ZM25.7185 41.3636C22.1513 43.9489 18.9804 46.733 15.6113 49.7159C13.6295 47.7273 11.8459 45.5398 10.2605 43.3523C4.71144 35.9943 2.72964 29.8295 4.90962 26.4489C6.69323 23.6648 10.855 23.0682 14.2241 23.0682C18.9804 23.267 23.7367 24.0625 28.2948 25.4545C26.9076 30.8239 26.1148 35.9943 25.7185 41.3636ZM61.7872 38.1818C60.2018 36.9886 58.6163 35.9943 56.8327 35C54.6527 33.608 52.4728 32.2159 50.0946 31.0227C53.2655 29.4318 56.4364 28.0398 59.8054 26.8466C60.7963 30.625 61.3908 34.4034 61.7872 38.1818ZM45.9328 3.77841C50.6891 3.77841 55.8418 10.9375 59.0127 23.0682C54.6527 24.6591 50.0946 26.4489 45.9328 28.6364C41.7711 26.4489 37.2129 24.4602 32.853 22.8693C36.0238 10.9375 41.1765 3.77841 45.9328 3.77841ZM31.8621 26.8466C35.2311 28.0398 38.402 29.4318 41.5729 31.0227C39.3929 32.2159 37.2129 33.608 34.8348 35C33.0511 35.9943 31.4657 37.1875 29.8803 38.1818C30.4748 34.4034 31.0693 30.625 31.8621 26.8466ZM30.0784 66.8182C31.6639 68.0114 33.2493 69.0057 35.0329 70.1989C37.2129 71.5909 39.3929 72.983 41.771 74.1761C38.402 75.767 35.2311 77.1591 32.0602 78.3523C31.0693 74.375 30.4748 70.5966 30.0784 66.8182ZM45.9328 101.222C41.1765 101.222 36.0238 94.0625 32.853 81.9318C37.4111 80.3409 41.7711 78.5511 45.9328 76.3636C50.0946 78.5511 54.6527 80.3409 59.0127 82.1307C55.8418 94.0625 50.6891 101.222 45.9328 101.222ZM60.0036 78.1534C56.8327 76.9602 53.6618 75.5682 50.2928 73.9773C52.4728 72.7841 54.6527 71.392 57.0309 70C58.6163 69.0057 60.3999 67.8125 61.9854 66.6193C61.3909 70.5966 60.7963 74.375 60.0036 78.1534ZM62.3817 61.6477C60.0036 63.4375 57.4273 65.0284 54.8509 66.8182C51.8782 68.6079 48.9055 70.3977 45.9328 71.9886C42.9601 70.3977 39.9874 68.6079 37.0147 66.8182C34.4384 65.2273 31.8621 63.4375 29.4839 61.6477C29.2857 58.6648 29.0875 55.6818 29.0875 52.5C29.0875 49.3182 29.2857 46.3352 29.4839 43.3523C31.8621 41.5625 34.4384 39.9716 37.0147 38.1818C39.9874 36.392 42.9601 34.6023 45.9328 33.0114C48.9055 34.6023 51.8782 36.1932 54.8509 38.1818C57.4273 39.7727 60.0036 41.5625 62.3817 43.3523C62.5799 46.3352 62.7781 49.3182 62.7781 52.5C62.7781 55.6818 62.5799 58.6648 62.3817 61.6477ZM81.6052 61.6477C87.1542 69.0057 89.136 75.1705 86.956 78.5511C85.1724 81.3352 81.0107 81.9318 77.6416 81.9318C72.8853 81.733 68.129 80.9375 63.5708 79.3466C64.7599 74.1761 65.5526 69.0057 65.949 63.6364C69.5162 61.0511 72.6871 58.267 75.858 55.2841C78.0379 57.2727 79.8216 59.4602 81.6052 61.6477ZM66.5435 46.5341C68.9217 48.5227 71.2998 50.5114 73.4798 52.5C71.2998 54.4886 69.1199 56.4773 66.5435 58.4659C66.5435 56.4773 66.7417 54.4886 66.7417 52.5C66.7417 50.5114 66.5435 48.5227 66.5435 46.5341ZM76.2543 49.7159C73.0835 46.733 69.7144 43.9489 66.3453 41.3636C65.949 36.1932 65.1563 30.8239 63.9672 25.6534C68.5253 24.0625 73.2816 23.267 78.0379 23.0682C81.2088 23.0682 85.5688 23.6648 87.3524 26.4489C89.5324 29.8295 87.5506 35.9943 82.0015 43.3523C79.8216 45.5398 78.0379 47.7273 76.2543 49.7159Z" fill="white" fill-opacity="0.5"/>
<path d="M45.9331 43.1533C40.7804 43.1533 36.6187 47.3295 36.6187 52.4999C36.6187 57.6704 40.7804 61.8465 45.9331 61.8465C51.0858 61.8465 55.2475 57.6704 55.2475 52.4999C55.2475 47.3295 51.0858 43.1533 45.9331 43.1533Z" fill="white" fill-opacity="0.5"/>
</g>
<defs>
<clipPath id="clip0">
<rect width="92" height="105" fill="white"/>
</clipPath>
</defs>
</svg>
